<svg xmlns="http://www.w3.org/2000/svg" viewBox="0 0 480 480" width="480" height="480" class="lottie-pulse-svg" preserveAspectRatio="xMidYMid meet" style="width: 100%; height: 100%; transform: translate3d(0px, 0px, 0px);"><defs><clipPath id="__lottie_element_355"><rect width="480" height="480" x="0" y="0"></rect></clipPath><clipPath id="__lottie_element_357"><path d="M0,0 L6186,0 L6186,6186 L0,6186z"></path></clipPath><clipPath id="__lottie_element_361"><path d="M0,0 L3840,0 L3840,3840 L0,3840z"></path></clipPath><clipPath id="__lottie_element_374"><path d="M0,0 L3840,0 L3840,3840 L0,3840z"></path></clipPath></defs><g clip-path="url(#__lottie_element_355)"><g clip-path="url(#__lottie_element_357)" transform="matrix(0.07760000228881836,0,0,0.07760000228881836,-0.0167999267578125,-0.0167999267578125)" opacity="1" style="display: block;"><g clip-path="url(#__lottie_element_374)" transform="matrix(1,0,0,1,1173,1173)" opacity="1" style="display: block;"><g transform="matrix(1,0,0,1,1920,1920)" opacity="1" style="display: block;"><g opacity="1" transform="matrix(1,0,0,1,0,0)"><g opacity="1" transform="matrix(0.994521975517273,-0.1045282706618309,0.1045282706618309,0.994521975517273,0,0)"><g opacity="1" transform="matrix(1.1100000143051147,0,0,1.1100000143051147,0,245)"><path fill="rgb(6,22,206)" fill-opacity="1" d=" M0,356 C2.2076001167297363,356 4,357.7923889160156 4,360 C4,362.2076110839844 2.2076001167297363,364 0,364 C-2.2076001167297363,364 -4,362.2076110839844 -4,360 C-4,357.7923889160156 -2.2076001167297363,356 0,356z"></path></g></g><g opacity="1" transform="matrix(0.9781476855278015,-0.20791150629520416,0.20791150629520416,0.9781476855278015,0,0)"><g opacity="1" transform="matrix(1.1100000143051147,0,0,1.1100000143051147,0,245)"><path fill="rgb(6,22,206)" fill-opacity="1" d=" M0,356 C2.2076001167297363,356 4,357.7923889160156 4,360 C4,362.2076110839844 2.2076001167297363,364 0,364 C-2.2076001167297363,364 -4,362.2076110839844 -4,360 C-4,357.7923889160156 -2.2076001167297363,356 0,356z"></path></g></g><g opacity="1" transform="matrix(0.9510565996170044,-0.3090168237686157,0.3090168237686157,0.9510565996170044,0,0)"><g opacity="1" transform="matrix(1.1100000143051147,0,0,1.1100000143051147,0,245)"><path fill="rgb(6,22,206)" fill-opacity="1" d=" M0,356 C2.2076001167297363,356 4,357.7923889160156 4,360 C4,362.2076110839844 2.2076001167297363,364 0,364 C-2.2076001167297363,364 -4,362.2076110839844 -4,360 C-4,357.7923889160156 -2.2076001167297363,356 0,356z"></path></g></g><g opacity="1" transform="matrix(0.913545548915863,-0.40673649311065674,0.40673649311065674,0.913545548915863,0,0)"><g opacity="1" transform="matrix(1.1100000143051147,0,0,1.1100000143051147,0,245)"><path fill="rgb(6,22,206)" fill-opacity="1" d=" M0,356 C2.2076001167297363,356 4,357.7923889160156 4,360 C4,362.2076110839844 2.2076001167297363,364 0,364 C-2.2076001167297363,364 -4,362.2076110839844 -4,360 C-4,357.7923889160156 -2.2076001167297363,356 0,356z"></path></g></g><g opacity="1" transform="matrix(0.8660255074501038,-0.49999985098838806,0.49999985098838806,0.8660255074501038,0,0)"><g opacity="1" transform="matrix(1.1100000143051147,0,0,1.1100000143051147,0,245)"><path fill="rgb(6,22,206)" fill-opacity="1" d=" M0,356 C2.2076001167297363,356 4,357.7923889160156 4,360 C4,362.2076110839844 2.2076001167297363,364 0,364 C-2.2076001167297363,364 -4,362.2076110839844 -4,360 C-4,357.7923889160156 -2.2076001167297363,356 0,356z"></path></g></g><g opacity="1" transform="matrix(0.8090171217918396,-0.5877851247787476,0.5877851247787476,0.8090171217918396,0,0)"><g opacity="1" transform="matrix(1.1100000143051147,0,0,1.1100000143051147,0,245)"><path fill="rgb(6,22,206)" fill-opacity="1" d=" M0,356 C2.2076001167297363,356 4,357.7923889160156 4,360 C4,362.2076110839844 2.2076001167297363,364 0,364 C-2.2076001167297363,364 -4,362.2076110839844 -4,360 C-4,357.7923889160156 -2.2076001167297363,356 0,356z"></path></g></g><g opacity="1" transform="matrix(0.7431449890136719,-0.6691305041313171,0.6691305041313171,0.7431449890136719,0,0)"><g opacity="1" transform="matrix(1.1100000143051147,0,0,1.1100000143051147,0,245)"><path fill="rgb(6,22,206)" fill-opacity="1" d=" M0,356 C2.2076001167297363,356 4,357.7923889160156 4,360 C4,362.2076110839844 2.2076001167297363,364 0,364 C-2.2076001167297363,364 -4,362.2076110839844 -4,360 C-4,357.7923889160156 -2.2076001167297363,356 0,356z"></path></g></g><g opacity="1" transform="matrix(0.669130802154541,-0.7431447505950928,0.7431447505950928,0.669130802154541,0,0)"><g opacity="1" transform="matrix(1.1100000143051147,0,0,1.1100000143051147,0,245)"><path fill="rgb(6,22,206)" fill-opacity="1" d=" M0,356 C2.2076001167297363,356 4,357.7923889160156 4,360 C4,362.2076110839844 2.2076001167297363,364 0,364 C-2.2076001167297363,364 -4,362.2076110839844 -4,360 C-4,357.7923889160156 -2.2076001167297363,356 0,356z"></path></g></g><g opacity="1" transform="matrix(0.5877854824066162,-0.8090169429779053,0.8090169429779053,0.5877854824066162,0,0)"><g opacity="1" transform="matrix(1.1100000143051147,0,0,1.1100000143051147,0,245)"><path fill="rgb(6,22,206)" fill-opacity="1" d=" M0,356 C2.2076001167297363,356 4,357.7923889160156 4,360 C4,362.2076110839844 2.2076001167297363,364 0,364 C-2.2076001167297363,364 -4,362.2076110839844 -4,360 C-4,357.7923889160156 -2.2076001167297363,356 0,356z"></path></g></g><g opacity="1" transform="matrix(0.5000002384185791,-0.8660253882408142,0.8660253882408142,0.5000002384185791,0,0)"><g opacity="1" transform="matrix(1.1100000143051147,0,0,1.1100000143051147,0,245)"><path fill="rgb(6,22,206)" fill-opacity="1" d=" M0,356 C2.2076001167297363,356 4,357.7923889160156 4,360 C4,362.2076110839844 2.2076001167297363,364 0,364 C-2.2076001167297363,364 -4,362.2076110839844 -4,360 C-4,357.7923889160156 -2.2076001167297363,356 0,356z"></path></g></g><g opacity="1" transform="matrix(0.4067368805408478,-0.9135454893112183,0.9135454893112183,0.4067368805408478,0,0)"><g opacity="1" transform="matrix(1.1100000143051147,0,0,1.1100000143051147,0,245)"><path fill="rgb(6,22,206)" fill-opacity="1" d=" M0,356 C2.2076001167297363,356 4,357.7923889160156 4,360 C4,362.2076110839844 2.2076001167297363,364 0,364 C-2.2076001167297363,364 -4,362.2076110839844 -4,360 C-4,357.7923889160156 -2.2076001167297363,356 0,356z"></path></g></g><g opacity="1" transform="matrix(0.30901721119880676,-0.9510565996170044,0.9510565996170044,0.30901721119880676,0,0)"><g opacity="1" transform="matrix(1.1100000143051147,0,0,1.1100000143051147,0,245)"><path fill="rgb(6,22,206)" fill-opacity="1" d=" M0,356 C2.2076001167297363,356 4,357.7923889160156 4,360 C4,362.2076110839844 2.2076001167297363,364 0,364 C-2.2076001167297363,364 -4,362.2076110839844 -4,360 C-4,357.7923889160156 -2.2076001167297363,356 0,356z"></path></g></g><g opacity="1" transform="matrix(0.2079118937253952,-0.9781476855278015,0.9781476855278015,0.2079118937253952,0,0)"><g opacity="1" transform="matrix(1.1100000143051147,0,0,1.1100000143051147,0,245)"><path fill="rgb(6,22,206)" fill-opacity="1" d=" M0,356 C2.2076001167297363,356 4,357.7923889160156 4,360 C4,362.2076110839844 2.2076001167297363,364 0,364 C-2.2076001167297363,364 -4,362.2076110839844 -4,360 C-4,357.7923889160156 -2.2076001167297363,356 0,356z"></path></g></g><g opacity="1" transform="matrix(0.10452865809202194,-0.994521975517273,0.994521975517273,0.10452865809202194,0,0)"><g opacity="1" transform="matrix(1.1100000143051147,0,0,1.1100000143051147,0,245)"><path fill="rgb(6,22,206)" fill-opacity="1" d=" M0,356 C2.2076001167297363,356 4,357.7923889160156 4,360 C4,362.2076110839844 2.2076001167297363,364 0,364 C-2.2076001167297363,364 -4,362.2076110839844 -4,360 C-4,357.7923889160156 -2.2076001167297363,356 0,356z"></path></g></g><g opacity="1" transform="matrix(0,-1.0000001192092896,1.0000001192092896,0,0,0)"><g opacity="1" transform="matrix(1.1100000143051147,0,0,1.1100000143051147,0,245)"><path fill="rgb(6,22,206)" fill-opacity="1" d=" M0,356 C2.2076001167297363,356 4,357.7923889160156 4,360 C4,362.2076110839844 2.2076001167297363,364 0,364 C-2.2076001167297363,364 -4,362.2076110839844 -4,360 C-4,357.7923889160156 -2.2076001167297363,356 0,356z"></path></g></g><g opacity="1" transform="matrix(-0.10452829301357269,-0.9945220351219177,0.9945220351219177,-0.10452829301357269,0,0)"><g opacity="1" transform="matrix(1.1100000143051147,0,0,1.1100000143051147,0,245)"><path fill="rgb(6,22,206)" fill-opacity="1" d=" M0,356 C2.2076001167297363,356 4,357.7923889160156 4,360 C4,362.2076110839844 2.2076001167297363,364 0,364 C-2.2076001167297363,364 -4,362.2076110839844 -4,360 C-4,357.7923889160156 -2.2076001167297363,356 0,356z"></path></g></g><g opacity="1" transform="matrix(-0.20791153609752655,-0.9781477451324463,0.9781477451324463,-0.20791153609752655,0,0)"><g opacity="1" transform="matrix(1.1100000143051147,0,0,1.1100000143051147,0,245)"><path fill="rgb(6,22,206)" fill-opacity="1" d=" M0,356 C2.2076001167297363,356 4,357.7923889160156 4,360 C4,362.2076110839844 2.2076001167297363,364 0,364 C-2.2076001167297363,364 -4,362.2076110839844 -4,360 C-4,357.7923889160156 -2.2076001167297363,356 0,356z"></path></g></g><g opacity="1" transform="matrix(-0.3090168535709381,-0.9510566592216492,0.9510566592216492,-0.3090168535709381,0,0)"><g opacity="1" transform="matrix(1.1100000143051147,0,0,1.1100000143051147,0,245)"><path fill="rgb(6,22,206)" fill-opacity="1" d=" M0,356 C2.2076001167297363,356 4,357.7923889160156 4,360 C4,362.2076110839844 2.2076001167297363,364 0,364 C-2.2076001167297363,364 -4,362.2076110839844 -4,360 C-4,357.7923889160156 -2.2076001167297363,356 0,356z"></path></g></g><g opacity="1" transform="matrix(-0.4067365229129791,-0.9135456085205078,0.9135456085205078,-0.4067365229129791,0,0)"><g opacity="1" transform="matrix(1.1100000143051147,0,0,1.1100000143051147,0,245)"><path fill="rgb(6,22,206)" fill-opacity="1" d=" M0,356 C2.2076001167297363,356 4,357.7923889160156 4,360 C4,362.2076110839844 2.2076001167297363,364 0,364 C-2.2076001167297363,364 -4,362.2076110839844 -4,360 C-4,357.7923889160156 -2.2076001167297363,356 0,356z"></path></g></g><g opacity="1" transform="matrix(-0.49999991059303284,-0.8660255670547485,0.8660255670547485,-0.49999991059303284,0,0)"><g opacity="1" transform="matrix(1.1100000143051147,0,0,1.1100000143051147,0,245)"><path fill="rgb(6,22,206)" fill-opacity="1" d=" M0,356 C2.2076001167297363,356 4,357.7923889160156 4,360 C4,362.2076110839844 2.2076001167297363,364 0,364 C-2.2076001167297363,364 -4,362.2076110839844 -4,360 C-4,357.7923889160156 -2.2076001167297363,356 0,356z"></path></g></g><g opacity="1" transform="matrix(-0.5877851843833923,-0.8090171813964844,0.8090171813964844,-0.5877851843833923,0,0)"><g opacity="1" transform="matrix(1.1100000143051147,0,0,1.1100000143051147,0,245)"><path fill="rgb(6,22,206)" fill-opacity="1" d=" M0,356 C2.2076001167297363,356 4,357.7923889160156 4,360 C4,362.2076110839844 2.2076001167297363,364 0,364 C-2.2076001167297363,364 -4,362.2076110839844 -4,360 C-4,357.7923889160156 -2.2076001167297363,356 0,356z"></path></g></g><g opacity="1" transform="matrix(-0.6691305637359619,-0.7431449890136719,0.7431449890136719,-0.6691305637359619,0,0)"><g opacity="1" transform="matrix(1.1100000143051147,0,0,1.1100000143051147,0,245)"><path fill="rgb(6,22,206)" fill-opacity="1" d=" M0,356 C2.2076001167297363,356 4,357.7923889160156 4,360 C4,362.2076110839844 2.2076001167297363,364 0,364 C-2.2076001167297363,364 -4,362.2076110839844 -4,360 C-4,357.7923889160156 -2.2076001167297363,356 0,356z"></path></g></g><g opacity="1" transform="matrix(-0.7431448101997375,-0.669130802154541,0.669130802154541,-0.7431448101997375,0,0)"><g opacity="1" transform="matrix(1.1100000143051147,0,0,1.1100000143051147,0,245)"><path fill="rgb(6,22,206)" fill-opacity="1" d=" M0,356 C2.2076001167297363,356 4,357.7923889160156 4,360 C4,362.2076110839844 2.2076001167297363,364 0,364 C-2.2076001167297363,364 -4,362.2076110839844 -4,360 C-4,357.7923889160156 -2.2076001167297363,356 0,356z"></path></g></g><g opacity="1" transform="matrix(-0.80901700258255,-0.5877854228019714,0.5877854228019714,-0.80901700258255,0,0)"><g opacity="1" transform="matrix(1.1100000143051147,0,0,1.1100000143051147,0,245)"><path fill="rgb(6,22,206)" fill-opacity="1" d=" M0,356 C2.2076001167297363,356 4,357.7923889160156 4,360 C4,362.2076110839844 2.2076001167297363,364 0,364 C-2.2076001167297363,364 -4,362.2076110839844 -4,360 C-4,357.7923889160156 -2.2076001167297363,356 0,356z"></path></g></g><g opacity="1" transform="matrix(-0.866025447845459,-0.5000001788139343,0.5000001788139343,-0.866025447845459,0,0)"><g opacity="1" transform="matrix(1.1100000143051147,0,0,1.1100000143051147,0,245)"><path fill="rgb(6,22,206)" fill-opacity="1" d=" M0,356 C2.2076001167297363,356 4,357.7923889160156 4,360 C4,362.2076110839844 2.2076001167297363,364 0,364 C-2.2076001167297363,364 -4,362.2076110839844 -4,360 C-4,357.7923889160156 -2.2076001167297363,356 0,356z"></path></g></g><g opacity="1" transform="matrix(-0.913545548915863,-0.406736820936203,0.406736820936203,-0.913545548915863,0,0)"><g opacity="1" transform="matrix(1.1100000143051147,0,0,1.1100000143051147,0,245)"><path fill="rgb(6,22,206)" fill-opacity="1" d=" M0,356 C2.2076001167297363,356 4,357.7923889160156 4,360 C4,362.2076110839844 2.2076001167297363,364 0,364 C-2.2076001167297363,364 -4,362.2076110839844 -4,360 C-4,357.7923889160156 -2.2076001167297363,356 0,356z"></path></g></g><g opacity="1" transform="matrix(-0.9510565996170044,-0.309017151594162,0.309017151594162,-0.9510565996170044,0,0)"><g opacity="1" transform="matrix(1.1100000143051147,0,0,1.1100000143051147,0,245)"><path fill="rgb(6,22,206)" fill-opacity="1" d=" M0,356 C2.2076001167297363,356 4,357.7923889160156 4,360 C4,362.2076110839844 2.2076001167297363,364 0,364 C-2.2076001167297363,364 -4,362.2076110839844 -4,360 C-4,357.7923889160156 -2.2076001167297363,356 0,356z"></path></g></g><g opacity="1" transform="matrix(-0.9781476855278015,-0.20791184902191162,0.20791184902191162,-0.9781476855278015,0,0)"><g opacity="1" transform="matrix(1.1100000143051147,0,0,1.1100000143051147,0,245)"><path fill="rgb(6,22,206)" fill-opacity="1" d=" M0,356 C2.2076001167297363,356 4,357.7923889160156 4,360 C4,362.2076110839844 2.2076001167297363,364 0,364 C-2.2076001167297363,364 -4,362.2076110839844 -4,360 C-4,357.7923889160156 -2.2076001167297363,356 0,356z"></path></g></g><g opacity="1" transform="matrix(-0.994521975517273,-0.10452861338853836,0.10452861338853836,-0.994521975517273,0,0)"><g opacity="1" transform="matrix(1.1100000143051147,0,0,1.1100000143051147,0,245)"><path fill="rgb(6,22,206)" fill-opacity="1" d=" M0,356 C2.2076001167297363,356 4,357.7923889160156 4,360 C4,362.2076110839844 2.2076001167297363,364 0,364 C-2.2076001167297363,364 -4,362.2076110839844 -4,360 C-4,357.7923889160156 -2.2076001167297363,356 0,356z"></path></g></g><g opacity="1" transform="matrix(-1.0000001192092896,0,0,-1.0000001192092896,0,0)"><g opacity="1" transform="matrix(1.1100000143051147,0,0,1.1100000143051147,0,245)"><path fill="rgb(6,22,206)" fill-opacity="1" d=" M0,356 C2.2076001167297363,356 4,357.7923889160156 4,360 C4,362.2076110839844 2.2076001167297363,364 0,364 C-2.2076001167297363,364 -4,362.2076110839844 -4,360 C-4,357.7923889160156 -2.2076001167297363,356 0,356z"></path></g></g><g opacity="1" transform="matrix(-0.994521975517273,0.10452833026647568,-0.10452833026647568,-0.994521975517273,0,0)"><g opacity="1" transform="matrix(1.1100000143051147,0,0,1.1100000143051147,0,245)"><path fill="rgb(6,22,206)" fill-opacity="1" d=" M0,356 C2.2076001167297363,356 4,357.7923889160156 4,360 C4,362.2076110839844 2.2076001167297363,364 0,364 C-2.2076001167297363,364 -4,362.2076110839844 -4,360 C-4,357.7923889160156 -2.2076001167297363,356 0,356z"></path></g></g><g opacity="1" transform="matrix(-0.9781476855278015,0.20791156589984894,-0.20791156589984894,-0.9781476855278015,0,0)"><g opacity="1" transform="matrix(1.1100000143051147,0,0,1.1100000143051147,0,245)"><path fill="rgb(6,22,206)" fill-opacity="1" d=" M0,356 C2.2076001167297363,356 4,357.7923889160156 4,360 C4,362.2076110839844 2.2076001167297363,364 0,364 C-2.2076001167297363,364 -4,362.2076110839844 -4,360 C-4,357.7923889160156 -2.2076001167297363,356 0,356z"></path></g></g><g opacity="1" transform="matrix(-0.9510565996170044,0.3090168833732605,-0.3090168833732605,-0.9510565996170044,0,0)"><g opacity="1" transform="matrix(1.1100000143051147,0,0,1.1100000143051147,0,245)"><path fill="rgb(6,22,206)" fill-opacity="1" d=" M0,356 C2.2076001167297363,356 4,357.7923889160156 4,360 C4,362.2076110839844 2.2076001167297363,364 0,364 C-2.2076001167297363,364 -4,362.2076110839844 -4,360 C-4,357.7923889160156 -2.2076001167297363,356 0,356z"></path></g></g><g opacity="1" transform="matrix(-0.913545548915863,0.4067365527153015,-0.4067365527153015,-0.913545548915863,0,0)"><g opacity="1" transform="matrix(1.1100000143051147,0,0,1.1100000143051147,0,245)"><path fill="rgb(6,22,206)" fill-opacity="1" d=" M0,356 C2.2076001167297363,356 4,357.7923889160156 4,360 C4,362.2076110839844 2.2076001167297363,364 0,364 C-2.2076001167297363,364 -4,362.2076110839844 -4,360 C-4,357.7923889160156 -2.2076001167297363,356 0,356z"></path></g></g><g opacity="1" transform="matrix(-0.8660255074501038,0.49999991059303284,-0.49999991059303284,-0.8660255074501038,0,0)"><g opacity="1" transform="matrix(1.1100000143051147,0,0,1.1100000143051147,0,245)"><path fill="rgb(6,22,206)" fill-opacity="1" d=" M0,356 C2.2076001167297363,356 4,357.7923889160156 4,360 C4,362.2076110839844 2.2076001167297363,364 0,364 C-2.2076001167297363,364 -4,362.2076110839844 -4,360 C-4,357.7923889160156 -2.2076001167297363,356 0,356z"></path></g></g><g opacity="1" transform="matrix(-0.8090171217918396,0.5877851843833923,-0.5877851843833923,-0.8090171217918396,0,0)"><g opacity="1" transform="matrix(1.1100000143051147,0,0,1.1100000143051147,0,245)"><path fill="rgb(6,22,206)" fill-opacity="1" d=" M0,356 C2.2076001167297363,356 4,357.7923889160156 4,360 C4,362.2076110839844 2.2076001167297363,364 0,364 C-2.2076001167297363,364 -4,362.2076110839844 -4,360 C-4,357.7923889160156 -2.2076001167297363,356 0,356z"></path></g></g><g opacity="1" transform="matrix(-0.7431449294090271,0.6691305637359619,-0.6691305637359619,-0.7431449294090271,0,0)"><g opacity="1" transform="matrix(1.1100000143051147,0,0,1.1100000143051147,0,245)"><path fill="rgb(6,22,206)" fill-opacity="1" d=" M0,356 C2.2076001167297363,356 4,357.7923889160156 4,360 C4,362.2076110839844 2.2076001167297363,364 0,364 C-2.2076001167297363,364 -4,362.2076110839844 -4,360 C-4,357.7923889160156 -2.2076001167297363,356 0,356z"></path></g></g><g opacity="1" transform="matrix(-0.6691306829452515,0.7431448101997375,-0.7431448101997375,-0.6691306829452515,0,0)"><g opacity="1" transform="matrix(1.1100000143051147,0,0,1.1100000143051147,0,245)"><path fill="rgb(6,22,206)" fill-opacity="1" d=" M0,356 C2.2076001167297363,356 4,357.7923889160156 4,360 C4,362.2076110839844 2.2076001167297363,364 0,364 C-2.2076001167297363,364 -4,362.2076110839844 -4,360 C-4,357.7923889160156 -2.2076001167297363,356 0,356z"></path></g></g><g opacity="1" transform="matrix(-0.5877853035926819,0.80901700258255,-0.80901700258255,-0.5877853035926819,0,0)"><g opacity="1" transform="matrix(1.1100000143051147,0,0,1.1100000143051147,0,245)"><path fill="rgb(6,22,206)" fill-opacity="1" d=" M0,356 C2.2076001167297363,356 4,357.7923889160156 4,360 C4,362.2076110839844 2.2076001167297363,364 0,364 C-2.2076001167297363,364 -4,362.2076110839844 -4,360 C-4,357.7923889160156 -2.2076001167297363,356 0,356z"></path></g></g><g opacity="1" transform="matrix(-0.5000000596046448,0.866025447845459,-0.866025447845459,-0.5000000596046448,0,0)"><g opacity="1" transform="matrix(1.1100000143051147,0,0,1.1100000143051147,0,245)"><path fill="rgb(6,22,206)" fill-opacity="1" d=" M0,356 C2.2076001167297363,356 4,357.7923889160156 4,360 C4,362.2076110839844 2.2076001167297363,364 0,364 C-2.2076001167297363,364 -4,362.2076110839844 -4,360 C-4,357.7923889160156 -2.2076001167297363,356 0,356z"></path></g></g><g opacity="1" transform="matrix(-0.40673667192459106,0.9135454893112183,-0.9135454893112183,-0.40673667192459106,0,0)"><g opacity="1" transform="matrix(1.1100000143051147,0,0,1.1100000143051147,0,245)"><path fill="rgb(6,22,206)" fill-opacity="1" d=" M0,356 C2.2076001167297363,356 4,357.7923889160156 4,360 C4,362.2076110839844 2.2076001167297363,364 0,364 C-2.2076001167297363,364 -4,362.2076110839844 -4,360 C-4,357.7923889160156 -2.2076001167297363,356 0,356z"></path></g></g><g opacity="1" transform="matrix(-0.30901703238487244,0.9510565400123596,-0.9510565400123596,-0.30901703238487244,0,0)"><g opacity="1" transform="matrix(1.1100000143051147,0,0,1.1100000143051147,0,245)"><path fill="rgb(6,22,206)" fill-opacity="1" d=" M0,356 C2.2076001167297363,356 4,357.7923889160156 4,360 C4,362.2076110839844 2.2076001167297363,364 0,364 C-2.2076001167297363,364 -4,362.2076110839844 -4,360 C-4,357.7923889160156 -2.2076001167297363,356 0,356z"></path></g></g><g opacity="1" transform="matrix(-0.20791171491146088,0.9781476259231567,-0.9781476259231567,-0.20791171491146088,0,0)"><g opacity="1" transform="matrix(1.1100000143051147,0,0,1.1100000143051147,0,245)"><path fill="rgb(6,22,206)" fill-opacity="1" d=" M0,356 C2.2076001167297363,356 4,357.7923889160156 4,360 C4,362.2076110839844 2.2076001167297363,364 0,364 C-2.2076001167297363,364 -4,362.2076110839844 -4,360 C-4,357.7923889160156 -2.2076001167297363,356 0,356z"></path></g></g><g opacity="1" transform="matrix(-0.10452848672866821,0.9945219159126282,-0.9945219159126282,-0.10452848672866821,0,0)"><g opacity="1" transform="matrix(1.1100000143051147,0,0,1.1100000143051147,0,245)"><path fill="rgb(6,22,206)" fill-opacity="1" d=" M0,356 C2.2076001167297363,356 4,357.7923889160156 4,360 C4,362.2076110839844 2.2076001167297363,364 0,364 C-2.2076001167297363,364 -4,362.2076110839844 -4,360 C-4,357.7923889160156 -2.2076001167297363,356 0,356z"></path></g></g><g opacity="1" transform="matrix(0,1,-1,0,0,0)"><g opacity="1" transform="matrix(1.1100000143051147,0,0,1.1100000143051147,0,245)"><path fill="rgb(6,22,206)" fill-opacity="1" d=" M0,356 C2.2076001167297363,356 4,357.7923889160156 4,360 C4,362.2076110839844 2.2076001167297363,364 0,364 C-2.2076001167297363,364 -4,362.2076110839844 -4,360 C-4,357.7923889160156 -2.2076001167297363,356 0,356z"></path></g></g><g opacity="1" transform="matrix(0.10452844202518463,0.9945219159126282,-0.9945219159126282,0.10452844202518463,0,0)"><g opacity="1" transform="matrix(1.1100000143051147,0,0,1.1100000143051147,0,245)"><path fill="rgb(6,22,206)" fill-opacity="1" d=" M0,356 C2.2076001167297363,356 4,357.7923889160156 4,360 C4,362.2076110839844 2.2076001167297363,364 0,364 C-2.2076001167297363,364 -4,362.2076110839844 -4,360 C-4,357.7923889160156 -2.2076001167297363,356 0,356z"></path></g></g><g opacity="1" transform="matrix(0.2079116702079773,0.9781476259231567,-0.9781476259231567,0.2079116702079773,0,0)"><g opacity="1" transform="matrix(1.1100000143051147,0,0,1.1100000143051147,0,245)"><path fill="rgb(6,22,206)" fill-opacity="1" d=" M0,356 C2.2076001167297363,356 4,357.7923889160156 4,360 C4,362.2076110839844 2.2076001167297363,364 0,364 C-2.2076001167297363,364 -4,362.2076110839844 -4,360 C-4,357.7923889160156 -2.2076001167297363,356 0,356z"></path></g></g><g opacity="1" transform="matrix(0.30901697278022766,0.9510565400123596,-0.9510565400123596,0.30901697278022766,0,0)"><g opacity="1" transform="matrix(1.1100000143051147,0,0,1.1100000143051147,0,245)"><path fill="rgb(6,22,206)" fill-opacity="1" d=" M0,356 C2.2076001167297363,356 4,357.7923889160156 4,360 C4,362.2076110839844 2.2076001167297363,364 0,364 C-2.2076001167297363,364 -4,362.2076110839844 -4,360 C-4,357.7923889160156 -2.2076001167297363,356 0,356z"></path></g></g><g opacity="1" transform="matrix(0.4067366123199463,0.9135454893112183,-0.9135454893112183,0.4067366123199463,0,0)"><g opacity="1" transform="matrix(1.1100000143051147,0,0,1.1100000143051147,0,245)"><path fill="rgb(6,22,206)" fill-opacity="1" d=" M0,356 C2.2076001167297363,356 4,357.7923889160156 4,360 C4,362.2076110839844 2.2076001167297363,364 0,364 C-2.2076001167297363,364 -4,362.2076110839844 -4,360 C-4,357.7923889160156 -2.2076001167297363,356 0,356z"></path></g></g><g opacity="1" transform="matrix(0.4999999701976776,0.866025447845459,-0.866025447845459,0.4999999701976776,0,0)"><g opacity="1" transform="matrix(1.1100000143051147,0,0,1.1100000143051147,0,245)"><path fill="rgb(6,22,206)" fill-opacity="1" d=" M0,356 C2.2076001167297363,356 4,357.7923889160156 4,360 C4,362.2076110839844 2.2076001167297363,364 0,364 C-2.2076001167297363,364 -4,362.2076110839844 -4,360 C-4,357.7923889160156 -2.2076001167297363,356 0,356z"></path></g></g><g opacity="1" transform="matrix(0.5877852439880371,0.8090170621871948,-0.8090170621871948,0.5877852439880371,0,0)"><g opacity="1" transform="matrix(1.1100000143051147,0,0,1.1100000143051147,0,245)"><path fill="rgb(6,22,206)" fill-opacity="1" d=" M0,356 C2.2076001167297363,356 4,357.7923889160156 4,360 C4,362.2076110839844 2.2076001167297363,364 0,364 C-2.2076001167297363,364 -4,362.2076110839844 -4,360 C-4,357.7923889160156 -2.2076001167297363,356 0,356z"></path></g></g><g opacity="1" transform="matrix(0.6691306233406067,0.7431448698043823,-0.7431448698043823,0.6691306233406067,0,0)"><g opacity="1" transform="matrix(1.1100000143051147,0,0,1.1100000143051147,0,245)"><path fill="rgb(6,22,206)" fill-opacity="1" d=" M0,356 C2.2076001167297363,356 4,357.7923889160156 4,360 C4,362.2076110839844 2.2076001167297363,364 0,364 C-2.2076001167297363,364 -4,362.2076110839844 -4,360 C-4,357.7923889160156 -2.2076001167297363,356 0,356z"></path></g></g><g opacity="1" transform="matrix(0.7431448698043823,0.6691306233406067,-0.6691306233406067,0.7431448698043823,0,0)"><g opacity="1" transform="matrix(1.1100000143051147,0,0,1.1100000143051147,0,245)"><path fill="rgb(6,22,206)" fill-opacity="1" d=" M0,356 C2.2076001167297363,356 4,357.7923889160156 4,360 C4,362.2076110839844 2.2076001167297363,364 0,364 C-2.2076001167297363,364 -4,362.2076110839844 -4,360 C-4,357.7923889160156 -2.2076001167297363,356 0,356z"></path></g></g><g opacity="1" transform="matrix(0.8090170621871948,0.5877852439880371,-0.5877852439880371,0.8090170621871948,0,0)"><g opacity="1" transform="matrix(1.1100000143051147,0,0,1.1100000143051147,0,245)"><path fill="rgb(6,22,206)" fill-opacity="1" d=" M0,356 C2.2076001167297363,356 4,357.7923889160156 4,360 C4,362.2076110839844 2.2076001167297363,364 0,364 C-2.2076001167297363,364 -4,362.2076110839844 -4,360 C-4,357.7923889160156 -2.2076001167297363,356 0,356z"></path></g></g><g opacity="1" transform="matrix(0.866025447845459,0.5,-0.5,0.866025447845459,0,0)"><g opacity="1" transform="matrix(1.1100000143051147,0,0,1.1100000143051147,0,245)"><path fill="rgb(6,22,206)" fill-opacity="1" d=" M0,356 C2.2076001167297363,356 4,357.7923889160156 4,360 C4,362.2076110839844 2.2076001167297363,364 0,364 C-2.2076001167297363,364 -4,362.2076110839844 -4,360 C-4,357.7923889160156 -2.2076001167297363,356 0,356z"></path></g></g><g opacity="1" transform="matrix(0.9135454893112183,0.4067366421222687,-0.4067366421222687,0.9135454893112183,0,0)"><g opacity="1" transform="matrix(1.1100000143051147,0,0,1.1100000143051147,0,245)"><path fill="rgb(6,22,206)" fill-opacity="1" d=" M0,356 C2.2076001167297363,356 4,357.7923889160156 4,360 C4,362.2076110839844 2.2076001167297363,364 0,364 C-2.2076001167297363,364 -4,362.2076110839844 -4,360 C-4,357.7923889160156 -2.2076001167297363,356 0,356z"></path></g></g><g opacity="1" transform="matrix(0.9510565400123596,0.30901700258255005,-0.30901700258255005,0.9510565400123596,0,0)"><g opacity="1" transform="matrix(1.1100000143051147,0,0,1.1100000143051147,0,245)"><path fill="rgb(6,22,206)" fill-opacity="1" d=" M0,356 C2.2076001167297363,356 4,357.7923889160156 4,360 C4,362.2076110839844 2.2076001167297363,364 0,364 C-2.2076001167297363,364 -4,362.2076110839844 -4,360 C-4,357.7923889160156 -2.2076001167297363,356 0,356z"></path></g></g><g opacity="1" transform="matrix(0.9781476259231567,0.20791170001029968,-0.20791170001029968,0.9781476259231567,0,0)"><g opacity="1" transform="matrix(1.1100000143051147,0,0,1.1100000143051147,0,245)"><path fill="rgb(6,22,206)" fill-opacity="1" d=" M0,356 C2.2076001167297363,356 4,357.7923889160156 4,360 C4,362.2076110839844 2.2076001167297363,364 0,364 C-2.2076001167297363,364 -4,362.2076110839844 -4,360 C-4,357.7923889160156 -2.2076001167297363,356 0,356z"></path></g></g><g opacity="1" transform="matrix(0.9945219159126282,0.10452846437692642,-0.10452846437692642,0.9945219159126282,0,0)"><g opacity="1" transform="matrix(1.1100000143051147,0,0,1.1100000143051147,0,245)"><path fill="rgb(6,22,206)" fill-opacity="1" d=" M0,356 C2.2076001167297363,356 4,357.7923889160156 4,360 C4,362.2076110839844 2.2076001167297363,364 0,364 C-2.2076001167297363,364 -4,362.2076110839844 -4,360 C-4,357.7923889160156 -2.2076001167297363,356 0,356z"></path></g></g><g opacity="1" transform="matrix(1,0,0,1,0,0)"><g opacity="1" transform="matrix(1.1100000143051147,0,0,1.1100000143051147,0,245)"><path fill="rgb(6,22,206)" fill-opacity="1" d=" M0,356 C2.2076001167297363,356 4,357.7923889160156 4,360 C4,362.2076110839844 2.2076001167297363,364 0,364 C-2.2076001167297363,364 -4,362.2076110839844 -4,360 C-4,357.7923889160156 -2.2076001167297363,356 0,356z"></path></g></g></g></g><g style="display: none;"><g></g></g><g style="display: none;"><g></g></g></g><g clip-path="url(#__lottie_element_361)" transform="matrix(1.6200000047683716,0,0,1.6200000047683716,-17.39990234375,-17.39990234375)" opacity="1" style="display: block;"><g transform="matrix(1,0,0,1,1920,1920)" opacity="1" style="display: block;"><g opacity="1" transform="matrix(1,0,0,1,0,0)"><g opacity="1" transform="matrix(0.994521975517273,-0.1045282706618309,0.1045282706618309,0.994521975517273,0,0)"><g opacity="1" transform="matrix(1.728330135345459,0,0,1.728330135345459,0,245)"><path fill="rgb(6,22,206)" fill-opacity="1" d=" M0,351.98150634765625 C4.425411224365234,351.98150634765625 8.018502235412598,355.5745849609375 8.018502235412598,360 C8.018502235412598,364.4254150390625 4.425411224365234,368.01849365234375 0,368.01849365234375 C-4.425411224365234,368.01849365234375 -8.018502235412598,364.4254150390625 -8.018502235412598,360 C-8.018502235412598,355.5745849609375 -4.425411224365234,351.98150634765625 0,351.98150634765625z"></path></g></g><g opacity="1" transform="matrix(0.9781476855278015,-0.20791150629520416,0.20791150629520416,0.9781476855278015,0,0)"><g opacity="1" transform="matrix(1.728330135345459,0,0,1.728330135345459,0,245)"><path fill="rgb(6,22,206)" fill-opacity="1" d=" M0,351.98150634765625 C4.425411224365234,351.98150634765625 8.018502235412598,355.5745849609375 8.018502235412598,360 C8.018502235412598,364.4254150390625 4.425411224365234,368.01849365234375 0,368.01849365234375 C-4.425411224365234,368.01849365234375 -8.018502235412598,364.4254150390625 -8.018502235412598,360 C-8.018502235412598,355.5745849609375 -4.425411224365234,351.98150634765625 0,351.98150634765625z"></path></g></g><g opacity="1" transform="matrix(0.9510565996170044,-0.3090168237686157,0.3090168237686157,0.9510565996170044,0,0)"><g opacity="1" transform="matrix(1.728330135345459,0,0,1.728330135345459,0,245)"><path fill="rgb(6,22,206)" fill-opacity="1" d=" M0,351.98150634765625 C4.425411224365234,351.98150634765625 8.018502235412598,355.5745849609375 8.018502235412598,360 C8.018502235412598,364.4254150390625 4.425411224365234,368.01849365234375 0,368.01849365234375 C-4.425411224365234,368.01849365234375 -8.018502235412598,364.4254150390625 -8.018502235412598,360 C-8.018502235412598,355.5745849609375 -4.425411224365234,351.98150634765625 0,351.98150634765625z"></path></g></g><g opacity="1" transform="matrix(0.913545548915863,-0.40673649311065674,0.40673649311065674,0.913545548915863,0,0)"><g opacity="1" transform="matrix(1.728330135345459,0,0,1.728330135345459,0,245)"><path fill="rgb(6,22,206)" fill-opacity="1" d=" M0,351.98150634765625 C4.425411224365234,351.98150634765625 8.018502235412598,355.5745849609375 8.018502235412598,360 C8.018502235412598,364.4254150390625 4.425411224365234,368.01849365234375 0,368.01849365234375 C-4.425411224365234,368.01849365234375 -8.018502235412598,364.4254150390625 -8.018502235412598,360 C-8.018502235412598,355.5745849609375 -4.425411224365234,351.98150634765625 0,351.98150634765625z"></path></g></g><g opacity="1" transform="matrix(0.8660255074501038,-0.49999985098838806,0.49999985098838806,0.8660255074501038,0,0)"><g opacity="1" transform="matrix(1.728330135345459,0,0,1.728330135345459,0,245)"><path fill="rgb(6,22,206)" fill-opacity="1" d=" M0,351.98150634765625 C4.425411224365234,351.98150634765625 8.018502235412598,355.5745849609375 8.018502235412598,360 C8.018502235412598,364.4254150390625 4.425411224365234,368.01849365234375 0,368.01849365234375 C-4.425411224365234,368.01849365234375 -8.018502235412598,364.4254150390625 -8.018502235412598,360 C-8.018502235412598,355.5745849609375 -4.425411224365234,351.98150634765625 0,351.98150634765625z"></path></g></g><g opacity="1" transform="matrix(0.8090171217918396,-0.5877851247787476,0.5877851247787476,0.8090171217918396,0,0)"><g opacity="1" transform="matrix(1.728330135345459,0,0,1.728330135345459,0,245)"><path fill="rgb(6,22,206)" fill-opacity="1" d=" M0,351.98150634765625 C4.425411224365234,351.98150634765625 8.018502235412598,355.5745849609375 8.018502235412598,360 C8.018502235412598,364.4254150390625 4.425411224365234,368.01849365234375 0,368.01849365234375 C-4.425411224365234,368.01849365234375 -8.018502235412598,364.4254150390625 -8.018502235412598,360 C-8.018502235412598,355.5745849609375 -4.425411224365234,351.98150634765625 0,351.98150634765625z"></path></g></g><g opacity="1" transform="matrix(0.7431449890136719,-0.6691305041313171,0.6691305041313171,0.7431449890136719,0,0)"><g opacity="1" transform="matrix(1.728330135345459,0,0,1.728330135345459,0,245)"><path fill="rgb(6,22,206)" fill-opacity="1" d=" M0,351.98150634765625 C4.425411224365234,351.98150634765625 8.018502235412598,355.5745849609375 8.018502235412598,360 C8.018502235412598,364.4254150390625 4.425411224365234,368.01849365234375 0,368.01849365234375 C-4.425411224365234,368.01849365234375 -8.018502235412598,364.4254150390625 -8.018502235412598,360 C-8.018502235412598,355.5745849609375 -4.425411224365234,351.98150634765625 0,351.98150634765625z"></path></g></g><g opacity="1" transform="matrix(0.669130802154541,-0.7431447505950928,0.7431447505950928,0.669130802154541,0,0)"><g opacity="1" transform="matrix(1.728330135345459,0,0,1.728330135345459,0,245)"><path fill="rgb(6,22,206)" fill-opacity="1" d=" M0,351.98150634765625 C4.425411224365234,351.98150634765625 8.018502235412598,355.5745849609375 8.018502235412598,360 C8.018502235412598,364.4254150390625 4.425411224365234,368.01849365234375 0,368.01849365234375 C-4.425411224365234,368.01849365234375 -8.018502235412598,364.4254150390625 -8.018502235412598,360 C-8.018502235412598,355.5745849609375 -4.425411224365234,351.98150634765625 0,351.98150634765625z"></path></g></g><g opacity="1" transform="matrix(0.5877854824066162,-0.8090169429779053,0.8090169429779053,0.5877854824066162,0,0)"><g opacity="1" transform="matrix(1.728330135345459,0,0,1.728330135345459,0,245)"><path fill="rgb(6,22,206)" fill-opacity="1" d=" M0,351.98150634765625 C4.425411224365234,351.98150634765625 8.018502235412598,355.5745849609375 8.018502235412598,360 C8.018502235412598,364.4254150390625 4.425411224365234,368.01849365234375 0,368.01849365234375 C-4.425411224365234,368.01849365234375 -8.018502235412598,364.4254150390625 -8.018502235412598,360 C-8.018502235412598,355.5745849609375 -4.425411224365234,351.98150634765625 0,351.98150634765625z"></path></g></g><g opacity="1" transform="matrix(0.5000002384185791,-0.8660253882408142,0.8660253882408142,0.5000002384185791,0,0)"><g opacity="1" transform="matrix(1.728330135345459,0,0,1.728330135345459,0,245)"><path fill="rgb(6,22,206)" fill-opacity="1" d=" M0,351.98150634765625 C4.425411224365234,351.98150634765625 8.018502235412598,355.5745849609375 8.018502235412598,360 C8.018502235412598,364.4254150390625 4.425411224365234,368.01849365234375 0,368.01849365234375 C-4.425411224365234,368.01849365234375 -8.018502235412598,364.4254150390625 -8.018502235412598,360 C-8.018502235412598,355.5745849609375 -4.425411224365234,351.98150634765625 0,351.98150634765625z"></path></g></g><g opacity="1" transform="matrix(0.4067368805408478,-0.9135454893112183,0.9135454893112183,0.4067368805408478,0,0)"><g opacity="1" transform="matrix(1.728330135345459,0,0,1.728330135345459,0,245)"><path fill="rgb(6,22,206)" fill-opacity="1" d=" M0,351.98150634765625 C4.425411224365234,351.98150634765625 8.018502235412598,355.5745849609375 8.018502235412598,360 C8.018502235412598,364.4254150390625 4.425411224365234,368.01849365234375 0,368.01849365234375 C-4.425411224365234,368.01849365234375 -8.018502235412598,364.4254150390625 -8.018502235412598,360 C-8.018502235412598,355.5745849609375 -4.425411224365234,351.98150634765625 0,351.98150634765625z"></path></g></g><g opacity="1" transform="matrix(0.30901721119880676,-0.9510565996170044,0.9510565996170044,0.30901721119880676,0,0)"><g opacity="1" transform="matrix(1.728330135345459,0,0,1.728330135345459,0,245)"><path fill="rgb(6,22,206)" fill-opacity="1" d=" M0,351.98150634765625 C4.425411224365234,351.98150634765625 8.018502235412598,355.5745849609375 8.018502235412598,360 C8.018502235412598,364.4254150390625 4.425411224365234,368.01849365234375 0,368.01849365234375 C-4.425411224365234,368.01849365234375 -8.018502235412598,364.4254150390625 -8.018502235412598,360 C-8.018502235412598,355.5745849609375 -4.425411224365234,351.98150634765625 0,351.98150634765625z"></path></g></g><g opacity="1" transform="matrix(0.2079118937253952,-0.9781476855278015,0.9781476855278015,0.2079118937253952,0,0)"><g opacity="1" transform="matrix(1.728330135345459,0,0,1.728330135345459,0,245)"><path fill="rgb(6,22,206)" fill-opacity="1" d=" M0,351.98150634765625 C4.425411224365234,351.98150634765625 8.018502235412598,355.5745849609375 8.018502235412598,360 C8.018502235412598,364.4254150390625 4.425411224365234,368.01849365234375 0,368.01849365234375 C-4.425411224365234,368.01849365234375 -8.018502235412598,364.4254150390625 -8.018502235412598,360 C-8.018502235412598,355.5745849609375 -4.425411224365234,351.98150634765625 0,351.98150634765625z"></path></g></g><g opacity="1" transform="matrix(0.10452865809202194,-0.994521975517273,0.994521975517273,0.10452865809202194,0,0)"><g opacity="1" transform="matrix(1.728330135345459,0,0,1.728330135345459,0,245)"><path fill="rgb(6,22,206)" fill-opacity="1" d=" M0,351.98150634765625 C4.425411224365234,351.98150634765625 8.018502235412598,355.5745849609375 8.018502235412598,360 C8.018502235412598,364.4254150390625 4.425411224365234,368.01849365234375 0,368.01849365234375 C-4.425411224365234,368.01849365234375 -8.018502235412598,364.4254150390625 -8.018502235412598,360 C-8.018502235412598,355.5745849609375 -4.425411224365234,351.98150634765625 0,351.98150634765625z"></path></g></g><g opacity="1" transform="matrix(0,-1.0000001192092896,1.0000001192092896,0,0,0)"><g opacity="1" transform="matrix(1.728330135345459,0,0,1.728330135345459,0,245)"><path fill="rgb(6,22,206)" fill-opacity="1" d=" M0,351.98150634765625 C4.425411224365234,351.98150634765625 8.018502235412598,355.5745849609375 8.018502235412598,360 C8.018502235412598,364.4254150390625 4.425411224365234,368.01849365234375 0,368.01849365234375 C-4.425411224365234,368.01849365234375 -8.018502235412598,364.4254150390625 -8.018502235412598,360 C-8.018502235412598,355.5745849609375 -4.425411224365234,351.98150634765625 0,351.98150634765625z"></path></g></g><g opacity="1" transform="matrix(-0.10452829301357269,-0.9945220351219177,0.9945220351219177,-0.10452829301357269,0,0)"><g opacity="1" transform="matrix(1.728330135345459,0,0,1.728330135345459,0,245)"><path fill="rgb(6,22,206)" fill-opacity="1" d=" M0,351.98150634765625 C4.425411224365234,351.98150634765625 8.018502235412598,355.5745849609375 8.018502235412598,360 C8.018502235412598,364.4254150390625 4.425411224365234,368.01849365234375 0,368.01849365234375 C-4.425411224365234,368.01849365234375 -8.018502235412598,364.4254150390625 -8.018502235412598,360 C-8.018502235412598,355.5745849609375 -4.425411224365234,351.98150634765625 0,351.98150634765625z"></path></g></g><g opacity="1" transform="matrix(-0.20791153609752655,-0.9781477451324463,0.9781477451324463,-0.20791153609752655,0,0)"><g opacity="1" transform="matrix(1.728330135345459,0,0,1.728330135345459,0,245)"><path fill="rgb(6,22,206)" fill-opacity="1" d=" M0,351.98150634765625 C4.425411224365234,351.98150634765625 8.018502235412598,355.5745849609375 8.018502235412598,360 C8.018502235412598,364.4254150390625 4.425411224365234,368.01849365234375 0,368.01849365234375 C-4.425411224365234,368.01849365234375 -8.018502235412598,364.4254150390625 -8.018502235412598,360 C-8.018502235412598,355.5745849609375 -4.425411224365234,351.98150634765625 0,351.98150634765625z"></path></g></g><g opacity="1" transform="matrix(-0.3090168535709381,-0.9510566592216492,0.9510566592216492,-0.3090168535709381,0,0)"><g opacity="1" transform="matrix(1.728330135345459,0,0,1.728330135345459,0,245)"><path fill="rgb(6,22,206)" fill-opacity="1" d=" M0,351.98150634765625 C4.425411224365234,351.98150634765625 8.018502235412598,355.5745849609375 8.018502235412598,360 C8.018502235412598,364.4254150390625 4.425411224365234,368.01849365234375 0,368.01849365234375 C-4.425411224365234,368.01849365234375 -8.018502235412598,364.4254150390625 -8.018502235412598,360 C-8.018502235412598,355.5745849609375 -4.425411224365234,351.98150634765625 0,351.98150634765625z"></path></g></g><g opacity="1" transform="matrix(-0.4067365229129791,-0.9135456085205078,0.9135456085205078,-0.4067365229129791,0,0)"><g opacity="1" transform="matrix(1.728330135345459,0,0,1.728330135345459,0,245)"><path fill="rgb(6,22,206)" fill-opacity="1" d=" M0,351.98150634765625 C4.425411224365234,351.98150634765625 8.018502235412598,355.5745849609375 8.018502235412598,360 C8.018502235412598,364.4254150390625 4.425411224365234,368.01849365234375 0,368.01849365234375 C-4.425411224365234,368.01849365234375 -8.018502235412598,364.4254150390625 -8.018502235412598,360 C-8.018502235412598,355.5745849609375 -4.425411224365234,351.98150634765625 0,351.98150634765625z"></path></g></g><g opacity="1" transform="matrix(-0.49999991059303284,-0.8660255670547485,0.8660255670547485,-0.49999991059303284,0,0)"><g opacity="1" transform="matrix(1.728330135345459,0,0,1.728330135345459,0,245)"><path fill="rgb(6,22,206)" fill-opacity="1" d=" M0,351.98150634765625 C4.425411224365234,351.98150634765625 8.018502235412598,355.5745849609375 8.018502235412598,360 C8.018502235412598,364.4254150390625 4.425411224365234,368.01849365234375 0,368.01849365234375 C-4.425411224365234,368.01849365234375 -8.018502235412598,364.4254150390625 -8.018502235412598,360 C-8.018502235412598,355.5745849609375 -4.425411224365234,351.98150634765625 0,351.98150634765625z"></path></g></g><g opacity="1" transform="matrix(-0.5877851843833923,-0.8090171813964844,0.8090171813964844,-0.5877851843833923,0,0)"><g opacity="1" transform="matrix(1.728330135345459,0,0,1.728330135345459,0,245)"><path fill="rgb(6,22,206)" fill-opacity="1" d=" M0,351.98150634765625 C4.425411224365234,351.98150634765625 8.018502235412598,355.5745849609375 8.018502235412598,360 C8.018502235412598,364.4254150390625 4.425411224365234,368.01849365234375 0,368.01849365234375 C-4.425411224365234,368.01849365234375 -8.018502235412598,364.4254150390625 -8.018502235412598,360 C-8.018502235412598,355.5745849609375 -4.425411224365234,351.98150634765625 0,351.98150634765625z"></path></g></g><g opacity="1" transform="matrix(-0.6691305637359619,-0.7431449890136719,0.7431449890136719,-0.6691305637359619,0,0)"><g opacity="1" transform="matrix(1.728330135345459,0,0,1.728330135345459,0,245)"><path fill="rgb(6,22,206)" fill-opacity="1" d=" M0,351.98150634765625 C4.425411224365234,351.98150634765625 8.018502235412598,355.5745849609375 8.018502235412598,360 C8.018502235412598,364.4254150390625 4.425411224365234,368.01849365234375 0,368.01849365234375 C-4.425411224365234,368.01849365234375 -8.018502235412598,364.4254150390625 -8.018502235412598,360 C-8.018502235412598,355.5745849609375 -4.425411224365234,351.98150634765625 0,351.98150634765625z"></path></g></g><g opacity="1" transform="matrix(-0.7431448101997375,-0.669130802154541,0.669130802154541,-0.7431448101997375,0,0)"><g opacity="1" transform="matrix(1.728330135345459,0,0,1.728330135345459,0,245)"><path fill="rgb(6,22,206)" fill-opacity="1" d=" M0,351.98150634765625 C4.425411224365234,351.98150634765625 8.018502235412598,355.5745849609375 8.018502235412598,360 C8.018502235412598,364.4254150390625 4.425411224365234,368.01849365234375 0,368.01849365234375 C-4.425411224365234,368.01849365234375 -8.018502235412598,364.4254150390625 -8.018502235412598,360 C-8.018502235412598,355.5745849609375 -4.425411224365234,351.98150634765625 0,351.98150634765625z"></path></g></g><g opacity="1" transform="matrix(-0.80901700258255,-0.5877854228019714,0.5877854228019714,-0.80901700258255,0,0)"><g opacity="1" transform="matrix(1.728330135345459,0,0,1.728330135345459,0,245)"><path fill="rgb(6,22,206)" fill-opacity="1" d=" M0,351.98150634765625 C4.425411224365234,351.98150634765625 8.018502235412598,355.5745849609375 8.018502235412598,360 C8.018502235412598,364.4254150390625 4.425411224365234,368.01849365234375 0,368.01849365234375 C-4.425411224365234,368.01849365234375 -8.018502235412598,364.4254150390625 -8.018502235412598,360 C-8.018502235412598,355.5745849609375 -4.425411224365234,351.98150634765625 0,351.98150634765625z"></path></g></g><g opacity="1" transform="matrix(-0.866025447845459,-0.5000001788139343,0.5000001788139343,-0.866025447845459,0,0)"><g opacity="1" transform="matrix(1.728330135345459,0,0,1.728330135345459,0,245)"><path fill="rgb(6,22,206)" fill-opacity="1" d=" M0,351.98150634765625 C4.425411224365234,351.98150634765625 8.018502235412598,355.5745849609375 8.018502235412598,360 C8.018502235412598,364.4254150390625 4.425411224365234,368.01849365234375 0,368.01849365234375 C-4.425411224365234,368.01849365234375 -8.018502235412598,364.4254150390625 -8.018502235412598,360 C-8.018502235412598,355.5745849609375 -4.425411224365234,351.98150634765625 0,351.98150634765625z"></path></g></g><g opacity="1" transform="matrix(-0.913545548915863,-0.406736820936203,0.406736820936203,-0.913545548915863,0,0)"><g opacity="1" transform="matrix(1.728330135345459,0,0,1.728330135345459,0,245)"><path fill="rgb(6,22,206)" fill-opacity="1" d=" M0,351.98150634765625 C4.425411224365234,351.98150634765625 8.018502235412598,355.5745849609375 8.018502235412598,360 C8.018502235412598,364.4254150390625 4.425411224365234,368.01849365234375 0,368.01849365234375 C-4.425411224365234,368.01849365234375 -8.018502235412598,364.4254150390625 -8.018502235412598,360 C-8.018502235412598,355.5745849609375 -4.425411224365234,351.98150634765625 0,351.98150634765625z"></path></g></g><g opacity="1" transform="matrix(-0.9510565996170044,-0.309017151594162,0.309017151594162,-0.9510565996170044,0,0)"><g opacity="1" transform="matrix(1.728330135345459,0,0,1.728330135345459,0,245)"><path fill="rgb(6,22,206)" fill-opacity="1" d=" M0,351.98150634765625 C4.425411224365234,351.98150634765625 8.018502235412598,355.5745849609375 8.018502235412598,360 C8.018502235412598,364.4254150390625 4.425411224365234,368.01849365234375 0,368.01849365234375 C-4.425411224365234,368.01849365234375 -8.018502235412598,364.4254150390625 -8.018502235412598,360 C-8.018502235412598,355.5745849609375 -4.425411224365234,351.98150634765625 0,351.98150634765625z"></path></g></g><g opacity="1" transform="matrix(-0.9781476855278015,-0.20791184902191162,0.20791184902191162,-0.9781476855278015,0,0)"><g opacity="1" transform="matrix(1.728330135345459,0,0,1.728330135345459,0,245)"><path fill="rgb(6,22,206)" fill-opacity="1" d=" M0,351.98150634765625 C4.425411224365234,351.98150634765625 8.018502235412598,355.5745849609375 8.018502235412598,360 C8.018502235412598,364.4254150390625 4.425411224365234,368.01849365234375 0,368.01849365234375 C-4.425411224365234,368.01849365234375 -8.018502235412598,364.4254150390625 -8.018502235412598,360 C-8.018502235412598,355.5745849609375 -4.425411224365234,351.98150634765625 0,351.98150634765625z"></path></g></g><g opacity="1" transform="matrix(-0.994521975517273,-0.10452861338853836,0.10452861338853836,-0.994521975517273,0,0)"><g opacity="1" transform="matrix(1.728330135345459,0,0,1.728330135345459,0,245)"><path fill="rgb(6,22,206)" fill-opacity="1" d=" M0,351.98150634765625 C4.425411224365234,351.98150634765625 8.018502235412598,355.5745849609375 8.018502235412598,360 C8.018502235412598,364.4254150390625 4.425411224365234,368.01849365234375 0,368.01849365234375 C-4.425411224365234,368.01849365234375 -8.018502235412598,364.4254150390625 -8.018502235412598,360 C-8.018502235412598,355.5745849609375 -4.425411224365234,351.98150634765625 0,351.98150634765625z"></path></g></g><g opacity="1" transform="matrix(-1.0000001192092896,0,0,-1.0000001192092896,0,0)"><g opacity="1" transform="matrix(1.728330135345459,0,0,1.728330135345459,0,245)"><path fill="rgb(6,22,206)" fill-opacity="1" d=" M0,351.98150634765625 C4.425411224365234,351.98150634765625 8.018502235412598,355.5745849609375 8.018502235412598,360 C8.018502235412598,364.4254150390625 4.425411224365234,368.01849365234375 0,368.01849365234375 C-4.425411224365234,368.01849365234375 -8.018502235412598,364.4254150390625 -8.018502235412598,360 C-8.018502235412598,355.5745849609375 -4.425411224365234,351.98150634765625 0,351.98150634765625z"></path></g></g><g opacity="1" transform="matrix(-0.994521975517273,0.10452833026647568,-0.10452833026647568,-0.994521975517273,0,0)"><g opacity="1" transform="matrix(1.728330135345459,0,0,1.728330135345459,0,245)"><path fill="rgb(6,22,206)" fill-opacity="1" d=" M0,351.98150634765625 C4.425411224365234,351.98150634765625 8.018502235412598,355.5745849609375 8.018502235412598,360 C8.018502235412598,364.4254150390625 4.425411224365234,368.01849365234375 0,368.01849365234375 C-4.425411224365234,368.01849365234375 -8.018502235412598,364.4254150390625 -8.018502235412598,360 C-8.018502235412598,355.5745849609375 -4.425411224365234,351.98150634765625 0,351.98150634765625z"></path></g></g><g opacity="1" transform="matrix(-0.9781476855278015,0.20791156589984894,-0.20791156589984894,-0.9781476855278015,0,0)"><g opacity="1" transform="matrix(1.728330135345459,0,0,1.728330135345459,0,245)"><path fill="rgb(6,22,206)" fill-opacity="1" d=" M0,351.98150634765625 C4.425411224365234,351.98150634765625 8.018502235412598,355.5745849609375 8.018502235412598,360 C8.018502235412598,364.4254150390625 4.425411224365234,368.01849365234375 0,368.01849365234375 C-4.425411224365234,368.01849365234375 -8.018502235412598,364.4254150390625 -8.018502235412598,360 C-8.018502235412598,355.5745849609375 -4.425411224365234,351.98150634765625 0,351.98150634765625z"></path></g></g><g opacity="1" transform="matrix(-0.9510565996170044,0.3090168833732605,-0.3090168833732605,-0.9510565996170044,0,0)"><g opacity="1" transform="matrix(1.728330135345459,0,0,1.728330135345459,0,245)"><path fill="rgb(6,22,206)" fill-opacity="1" d=" M0,351.98150634765625 C4.425411224365234,351.98150634765625 8.018502235412598,355.5745849609375 8.018502235412598,360 C8.018502235412598,364.4254150390625 4.425411224365234,368.01849365234375 0,368.01849365234375 C-4.425411224365234,368.01849365234375 -8.018502235412598,364.4254150390625 -8.018502235412598,360 C-8.018502235412598,355.5745849609375 -4.425411224365234,351.98150634765625 0,351.98150634765625z"></path></g></g><g opacity="1" transform="matrix(-0.913545548915863,0.4067365527153015,-0.4067365527153015,-0.913545548915863,0,0)"><g opacity="1" transform="matrix(1.728330135345459,0,0,1.728330135345459,0,245)"><path fill="rgb(6,22,206)" fill-opacity="1" d=" M0,351.98150634765625 C4.425411224365234,351.98150634765625 8.018502235412598,355.5745849609375 8.018502235412598,360 C8.018502235412598,364.4254150390625 4.425411224365234,368.01849365234375 0,368.01849365234375 C-4.425411224365234,368.01849365234375 -8.018502235412598,364.4254150390625 -8.018502235412598,360 C-8.018502235412598,355.5745849609375 -4.425411224365234,351.98150634765625 0,351.98150634765625z"></path></g></g><g opacity="1" transform="matrix(-0.8660255074501038,0.49999991059303284,-0.49999991059303284,-0.8660255074501038,0,0)"><g opacity="1" transform="matrix(1.728330135345459,0,0,1.728330135345459,0,245)"><path fill="rgb(6,22,206)" fill-opacity="1" d=" M0,351.98150634765625 C4.425411224365234,351.98150634765625 8.018502235412598,355.5745849609375 8.018502235412598,360 C8.018502235412598,364.4254150390625 4.425411224365234,368.01849365234375 0,368.01849365234375 C-4.425411224365234,368.01849365234375 -8.018502235412598,364.4254150390625 -8.018502235412598,360 C-8.018502235412598,355.5745849609375 -4.425411224365234,351.98150634765625 0,351.98150634765625z"></path></g></g><g opacity="1" transform="matrix(-0.8090171217918396,0.5877851843833923,-0.5877851843833923,-0.8090171217918396,0,0)"><g opacity="1" transform="matrix(1.728330135345459,0,0,1.728330135345459,0,245)"><path fill="rgb(6,22,206)" fill-opacity="1" d=" M0,351.98150634765625 C4.425411224365234,351.98150634765625 8.018502235412598,355.5745849609375 8.018502235412598,360 C8.018502235412598,364.4254150390625 4.425411224365234,368.01849365234375 0,368.01849365234375 C-4.425411224365234,368.01849365234375 -8.018502235412598,364.4254150390625 -8.018502235412598,360 C-8.018502235412598,355.5745849609375 -4.425411224365234,351.98150634765625 0,351.98150634765625z"></path></g></g><g opacity="1" transform="matrix(-0.7431449294090271,0.6691305637359619,-0.6691305637359619,-0.7431449294090271,0,0)"><g opacity="1" transform="matrix(1.728330135345459,0,0,1.728330135345459,0,245)"><path fill="rgb(6,22,206)" fill-opacity="1" d=" M0,351.98150634765625 C4.425411224365234,351.98150634765625 8.018502235412598,355.5745849609375 8.018502235412598,360 C8.018502235412598,364.4254150390625 4.425411224365234,368.01849365234375 0,368.01849365234375 C-4.425411224365234,368.01849365234375 -8.018502235412598,364.4254150390625 -8.018502235412598,360 C-8.018502235412598,355.5745849609375 -4.425411224365234,351.98150634765625 0,351.98150634765625z"></path></g></g><g opacity="1" transform="matrix(-0.6691306829452515,0.7431448101997375,-0.7431448101997375,-0.6691306829452515,0,0)"><g opacity="1" transform="matrix(1.728330135345459,0,0,1.728330135345459,0,245)"><path fill="rgb(6,22,206)" fill-opacity="1" d=" M0,351.98150634765625 C4.425411224365234,351.98150634765625 8.018502235412598,355.5745849609375 8.018502235412598,360 C8.018502235412598,364.4254150390625 4.425411224365234,368.01849365234375 0,368.01849365234375 C-4.425411224365234,368.01849365234375 -8.018502235412598,364.4254150390625 -8.018502235412598,360 C-8.018502235412598,355.5745849609375 -4.425411224365234,351.98150634765625 0,351.98150634765625z"></path></g></g><g opacity="1" transform="matrix(-0.5877853035926819,0.80901700258255,-0.80901700258255,-0.5877853035926819,0,0)"><g opacity="1" transform="matrix(1.728330135345459,0,0,1.728330135345459,0,245)"><path fill="rgb(6,22,206)" fill-opacity="1" d=" M0,351.98150634765625 C4.425411224365234,351.98150634765625 8.018502235412598,355.5745849609375 8.018502235412598,360 C8.018502235412598,364.4254150390625 4.425411224365234,368.01849365234375 0,368.01849365234375 C-4.425411224365234,368.01849365234375 -8.018502235412598,364.4254150390625 -8.018502235412598,360 C-8.018502235412598,355.5745849609375 -4.425411224365234,351.98150634765625 0,351.98150634765625z"></path></g></g><g opacity="1" transform="matrix(-0.5000000596046448,0.866025447845459,-0.866025447845459,-0.5000000596046448,0,0)"><g opacity="1" transform="matrix(1.728330135345459,0,0,1.728330135345459,0,245)"><path fill="rgb(6,22,206)" fill-opacity="1" d=" M0,351.98150634765625 C4.425411224365234,351.98150634765625 8.018502235412598,355.5745849609375 8.018502235412598,360 C8.018502235412598,364.4254150390625 4.425411224365234,368.01849365234375 0,368.01849365234375 C-4.425411224365234,368.01849365234375 -8.018502235412598,364.4254150390625 -8.018502235412598,360 C-8.018502235412598,355.5745849609375 -4.425411224365234,351.98150634765625 0,351.98150634765625z"></path></g></g><g opacity="1" transform="matrix(-0.40673667192459106,0.9135454893112183,-0.9135454893112183,-0.40673667192459106,0,0)"><g opacity="1" transform="matrix(1.728330135345459,0,0,1.728330135345459,0,245)"><path fill="rgb(6,22,206)" fill-opacity="1" d=" M0,351.98150634765625 C4.425411224365234,351.98150634765625 8.018502235412598,355.5745849609375 8.018502235412598,360 C8.018502235412598,364.4254150390625 4.425411224365234,368.01849365234375 0,368.01849365234375 C-4.425411224365234,368.01849365234375 -8.018502235412598,364.4254150390625 -8.018502235412598,360 C-8.018502235412598,355.5745849609375 -4.425411224365234,351.98150634765625 0,351.98150634765625z"></path></g></g><g opacity="1" transform="matrix(-0.30901703238487244,0.9510565400123596,-0.9510565400123596,-0.30901703238487244,0,0)"><g opacity="1" transform="matrix(1.728330135345459,0,0,1.728330135345459,0,245)"><path fill="rgb(6,22,206)" fill-opacity="1" d=" M0,351.98150634765625 C4.425411224365234,351.98150634765625 8.018502235412598,355.5745849609375 8.018502235412598,360 C8.018502235412598,364.4254150390625 4.425411224365234,368.01849365234375 0,368.01849365234375 C-4.425411224365234,368.01849365234375 -8.018502235412598,364.4254150390625 -8.018502235412598,360 C-8.018502235412598,355.5745849609375 -4.425411224365234,351.98150634765625 0,351.98150634765625z"></path></g></g><g opacity="1" transform="matrix(-0.20791171491146088,0.9781476259231567,-0.9781476259231567,-0.20791171491146088,0,0)"><g opacity="1" transform="matrix(1.728330135345459,0,0,1.728330135345459,0,245)"><path fill="rgb(6,22,206)" fill-opacity="1" d=" M0,351.98150634765625 C4.425411224365234,351.98150634765625 8.018502235412598,355.5745849609375 8.018502235412598,360 C8.018502235412598,364.4254150390625 4.425411224365234,368.01849365234375 0,368.01849365234375 C-4.425411224365234,368.01849365234375 -8.018502235412598,364.4254150390625 -8.018502235412598,360 C-8.018502235412598,355.5745849609375 -4.425411224365234,351.98150634765625 0,351.98150634765625z"></path></g></g><g opacity="1" transform="matrix(-0.10452848672866821,0.9945219159126282,-0.9945219159126282,-0.10452848672866821,0,0)"><g opacity="1" transform="matrix(1.728330135345459,0,0,1.728330135345459,0,245)"><path fill="rgb(6,22,206)" fill-opacity="1" d=" M0,351.98150634765625 C4.425411224365234,351.98150634765625 8.018502235412598,355.5745849609375 8.018502235412598,360 C8.018502235412598,364.4254150390625 4.425411224365234,368.01849365234375 0,368.01849365234375 C-4.425411224365234,368.01849365234375 -8.018502235412598,364.4254150390625 -8.018502235412598,360 C-8.018502235412598,355.5745849609375 -4.425411224365234,351.98150634765625 0,351.98150634765625z"></path></g></g><g opacity="1" transform="matrix(0,1,-1,0,0,0)"><g opacity="1" transform="matrix(1.728330135345459,0,0,1.728330135345459,0,245)"><path fill="rgb(6,22,206)" fill-opacity="1" d=" M0,351.98150634765625 C4.425411224365234,351.98150634765625 8.018502235412598,355.5745849609375 8.018502235412598,360 C8.018502235412598,364.4254150390625 4.425411224365234,368.01849365234375 0,368.01849365234375 C-4.425411224365234,368.01849365234375 -8.018502235412598,364.4254150390625 -8.018502235412598,360 C-8.018502235412598,355.5745849609375 -4.425411224365234,351.98150634765625 0,351.98150634765625z"></path></g></g><g opacity="1" transform="matrix(0.10452844202518463,0.9945219159126282,-0.9945219159126282,0.10452844202518463,0,0)"><g opacity="1" transform="matrix(1.728330135345459,0,0,1.728330135345459,0,245)"><path fill="rgb(6,22,206)" fill-opacity="1" d=" M0,351.98150634765625 C4.425411224365234,351.98150634765625 8.018502235412598,355.5745849609375 8.018502235412598,360 C8.018502235412598,364.4254150390625 4.425411224365234,368.01849365234375 0,368.01849365234375 C-4.425411224365234,368.01849365234375 -8.018502235412598,364.4254150390625 -8.018502235412598,360 C-8.018502235412598,355.5745849609375 -4.425411224365234,351.98150634765625 0,351.98150634765625z"></path></g></g><g opacity="1" transform="matrix(0.2079116702079773,0.9781476259231567,-0.9781476259231567,0.2079116702079773,0,0)"><g opacity="1" transform="matrix(1.728330135345459,0,0,1.728330135345459,0,245)"><path fill="rgb(6,22,206)" fill-opacity="1" d=" M0,351.98150634765625 C4.425411224365234,351.98150634765625 8.018502235412598,355.5745849609375 8.018502235412598,360 C8.018502235412598,364.4254150390625 4.425411224365234,368.01849365234375 0,368.01849365234375 C-4.425411224365234,368.01849365234375 -8.018502235412598,364.4254150390625 -8.018502235412598,360 C-8.018502235412598,355.5745849609375 -4.425411224365234,351.98150634765625 0,351.98150634765625z"></path></g></g><g opacity="1" transform="matrix(0.30901697278022766,0.9510565400123596,-0.9510565400123596,0.30901697278022766,0,0)"><g opacity="1" transform="matrix(1.728330135345459,0,0,1.728330135345459,0,245)"><path fill="rgb(6,22,206)" fill-opacity="1" d=" M0,351.98150634765625 C4.425411224365234,351.98150634765625 8.018502235412598,355.5745849609375 8.018502235412598,360 C8.018502235412598,364.4254150390625 4.425411224365234,368.01849365234375 0,368.01849365234375 C-4.425411224365234,368.01849365234375 -8.018502235412598,364.4254150390625 -8.018502235412598,360 C-8.018502235412598,355.5745849609375 -4.425411224365234,351.98150634765625 0,351.98150634765625z"></path></g></g><g opacity="1" transform="matrix(0.4067366123199463,0.9135454893112183,-0.9135454893112183,0.4067366123199463,0,0)"><g opacity="1" transform="matrix(1.728330135345459,0,0,1.728330135345459,0,245)"><path fill="rgb(6,22,206)" fill-opacity="1" d=" M0,351.98150634765625 C4.425411224365234,351.98150634765625 8.018502235412598,355.5745849609375 8.018502235412598,360 C8.018502235412598,364.4254150390625 4.425411224365234,368.01849365234375 0,368.01849365234375 C-4.425411224365234,368.01849365234375 -8.018502235412598,364.4254150390625 -8.018502235412598,360 C-8.018502235412598,355.5745849609375 -4.425411224365234,351.98150634765625 0,351.98150634765625z"></path></g></g><g opacity="1" transform="matrix(0.4999999701976776,0.866025447845459,-0.866025447845459,0.4999999701976776,0,0)"><g opacity="1" transform="matrix(1.728330135345459,0,0,1.728330135345459,0,245)"><path fill="rgb(6,22,206)" fill-opacity="1" d=" M0,351.98150634765625 C4.425411224365234,351.98150634765625 8.018502235412598,355.5745849609375 8.018502235412598,360 C8.018502235412598,364.4254150390625 4.425411224365234,368.01849365234375 0,368.01849365234375 C-4.425411224365234,368.01849365234375 -8.018502235412598,364.4254150390625 -8.018502235412598,360 C-8.018502235412598,355.5745849609375 -4.425411224365234,351.98150634765625 0,351.98150634765625z"></path></g></g><g opacity="1" transform="matrix(0.5877852439880371,0.8090170621871948,-0.8090170621871948,0.5877852439880371,0,0)"><g opacity="1" transform="matrix(1.728330135345459,0,0,1.728330135345459,0,245)"><path fill="rgb(6,22,206)" fill-opacity="1" d=" M0,351.98150634765625 C4.425411224365234,351.98150634765625 8.018502235412598,355.5745849609375 8.018502235412598,360 C8.018502235412598,364.4254150390625 4.425411224365234,368.01849365234375 0,368.01849365234375 C-4.425411224365234,368.01849365234375 -8.018502235412598,364.4254150390625 -8.018502235412598,360 C-8.018502235412598,355.5745849609375 -4.425411224365234,351.98150634765625 0,351.98150634765625z"></path></g></g><g opacity="1" transform="matrix(0.6691306233406067,0.7431448698043823,-0.7431448698043823,0.6691306233406067,0,0)"><g opacity="1" transform="matrix(1.728330135345459,0,0,1.728330135345459,0,245)"><path fill="rgb(6,22,206)" fill-opacity="1" d=" M0,351.98150634765625 C4.425411224365234,351.98150634765625 8.018502235412598,355.5745849609375 8.018502235412598,360 C8.018502235412598,364.4254150390625 4.425411224365234,368.01849365234375 0,368.01849365234375 C-4.425411224365234,368.01849365234375 -8.018502235412598,364.4254150390625 -8.018502235412598,360 C-8.018502235412598,355.5745849609375 -4.425411224365234,351.98150634765625 0,351.98150634765625z"></path></g></g><g opacity="1" transform="matrix(0.7431448698043823,0.6691306233406067,-0.6691306233406067,0.7431448698043823,0,0)"><g opacity="1" transform="matrix(1.728330135345459,0,0,1.728330135345459,0,245)"><path fill="rgb(6,22,206)" fill-opacity="1" d=" M0,351.98150634765625 C4.425411224365234,351.98150634765625 8.018502235412598,355.5745849609375 8.018502235412598,360 C8.018502235412598,364.4254150390625 4.425411224365234,368.01849365234375 0,368.01849365234375 C-4.425411224365234,368.01849365234375 -8.018502235412598,364.4254150390625 -8.018502235412598,360 C-8.018502235412598,355.5745849609375 -4.425411224365234,351.98150634765625 0,351.98150634765625z"></path></g></g><g opacity="1" transform="matrix(0.8090170621871948,0.5877852439880371,-0.5877852439880371,0.8090170621871948,0,0)"><g opacity="1" transform="matrix(1.728330135345459,0,0,1.728330135345459,0,245)"><path fill="rgb(6,22,206)" fill-opacity="1" d=" M0,351.98150634765625 C4.425411224365234,351.98150634765625 8.018502235412598,355.5745849609375 8.018502235412598,360 C8.018502235412598,364.4254150390625 4.425411224365234,368.01849365234375 0,368.01849365234375 C-4.425411224365234,368.01849365234375 -8.018502235412598,364.4254150390625 -8.018502235412598,360 C-8.018502235412598,355.5745849609375 -4.425411224365234,351.98150634765625 0,351.98150634765625z"></path></g></g><g opacity="1" transform="matrix(0.866025447845459,0.5,-0.5,0.866025447845459,0,0)"><g opacity="1" transform="matrix(1.728330135345459,0,0,1.728330135345459,0,245)"><path fill="rgb(6,22,206)" fill-opacity="1" d=" M0,351.98150634765625 C4.425411224365234,351.98150634765625 8.018502235412598,355.5745849609375 8.018502235412598,360 C8.018502235412598,364.4254150390625 4.425411224365234,368.01849365234375 0,368.01849365234375 C-4.425411224365234,368.01849365234375 -8.018502235412598,364.4254150390625 -8.018502235412598,360 C-8.018502235412598,355.5745849609375 -4.425411224365234,351.98150634765625 0,351.98150634765625z"></path></g></g><g opacity="1" transform="matrix(0.9135454893112183,0.4067366421222687,-0.4067366421222687,0.9135454893112183,0,0)"><g opacity="1" transform="matrix(1.728330135345459,0,0,1.728330135345459,0,245)"><path fill="rgb(6,22,206)" fill-opacity="1" d=" M0,351.98150634765625 C4.425411224365234,351.98150634765625 8.018502235412598,355.5745849609375 8.018502235412598,360 C8.018502235412598,364.4254150390625 4.425411224365234,368.01849365234375 0,368.01849365234375 C-4.425411224365234,368.01849365234375 -8.018502235412598,364.4254150390625 -8.018502235412598,360 C-8.018502235412598,355.5745849609375 -4.425411224365234,351.98150634765625 0,351.98150634765625z"></path></g></g><g opacity="1" transform="matrix(0.9510565400123596,0.30901700258255005,-0.30901700258255005,0.9510565400123596,0,0)"><g opacity="1" transform="matrix(1.728330135345459,0,0,1.728330135345459,0,245)"><path fill="rgb(6,22,206)" fill-opacity="1" d=" M0,351.98150634765625 C4.425411224365234,351.98150634765625 8.018502235412598,355.5745849609375 8.018502235412598,360 C8.018502235412598,364.4254150390625 4.425411224365234,368.01849365234375 0,368.01849365234375 C-4.425411224365234,368.01849365234375 -8.018502235412598,364.4254150390625 -8.018502235412598,360 C-8.018502235412598,355.5745849609375 -4.425411224365234,351.98150634765625 0,351.98150634765625z"></path></g></g><g opacity="1" transform="matrix(0.9781476259231567,0.20791170001029968,-0.20791170001029968,0.9781476259231567,0,0)"><g opacity="1" transform="matrix(1.728330135345459,0,0,1.728330135345459,0,245)"><path fill="rgb(6,22,206)" fill-opacity="1" d=" M0,351.98150634765625 C4.425411224365234,351.98150634765625 8.018502235412598,355.5745849609375 8.018502235412598,360 C8.018502235412598,364.4254150390625 4.425411224365234,368.01849365234375 0,368.01849365234375 C-4.425411224365234,368.01849365234375 -8.018502235412598,364.4254150390625 -8.018502235412598,360 C-8.018502235412598,355.5745849609375 -4.425411224365234,351.98150634765625 0,351.98150634765625z"></path></g></g><g opacity="1" transform="matrix(0.9945219159126282,0.10452846437692642,-0.10452846437692642,0.9945219159126282,0,0)"><g opacity="1" transform="matrix(1.728330135345459,0,0,1.728330135345459,0,245)"><path fill="rgb(6,22,206)" fill-opacity="1" d=" M0,351.98150634765625 C4.425411224365234,351.98150634765625 8.018502235412598,355.5745849609375 8.018502235412598,360 C8.018502235412598,364.4254150390625 4.425411224365234,368.01849365234375 0,368.01849365234375 C-4.425411224365234,368.01849365234375 -8.018502235412598,364.4254150390625 -8.018502235412598,360 C-8.018502235412598,355.5745849609375 -4.425411224365234,351.98150634765625 0,351.98150634765625z"></path></g></g><g opacity="1" transform="matrix(1,0,0,1,0,0)"><g opacity="1" transform="matrix(1.728330135345459,0,0,1.728330135345459,0,245)"><path fill="rgb(6,22,206)" fill-opacity="1" d=" M0,351.98150634765625 C4.425411224365234,351.98150634765625 8.018502235412598,355.5745849609375 8.018502235412598,360 C8.018502235412598,364.4254150390625 4.425411224365234,368.01849365234375 0,368.01849365234375 C-4.425411224365234,368.01849365234375 -8.018502235412598,364.4254150390625 -8.018502235412598,360 C-8.018502235412598,355.5745849609375 -4.425411224365234,351.98150634765625 0,351.98150634765625z"></path></g></g></g></g><g transform="matrix(1,0,0,1,1920,1920)" opacity="1" style="display: block;"><g opacity="1" transform="matrix(1,0,0,1,0,0)"><g opacity="1" transform="matrix(0.994521975517273,-0.1045282706618309,0.1045282706618309,0.994521975517273,0,0)"><g opacity="1" transform="matrix(0.9399999976158142,0,0,0.9399999976158142,0,245)"><path fill="rgb(6,22,206)" fill-opacity="1" d=" M0,356 C2.2076001167297363,356 4,357.7923889160156 4,360 C4,362.2076110839844 2.2076001167297363,364 0,364 C-2.2076001167297363,364 -4,362.2076110839844 -4,360 C-4,357.7923889160156 -2.2076001167297363,356 0,356z"></path></g></g><g opacity="1" transform="matrix(0.9781476855278015,-0.20791150629520416,0.20791150629520416,0.9781476855278015,0,0)"><g opacity="1" transform="matrix(0.9399999976158142,0,0,0.9399999976158142,0,245)"><path fill="rgb(6,22,206)" fill-opacity="1" d=" M0,356 C2.2076001167297363,356 4,357.7923889160156 4,360 C4,362.2076110839844 2.2076001167297363,364 0,364 C-2.2076001167297363,364 -4,362.2076110839844 -4,360 C-4,357.7923889160156 -2.2076001167297363,356 0,356z"></path></g></g><g opacity="1" transform="matrix(0.9510565996170044,-0.3090168237686157,0.3090168237686157,0.9510565996170044,0,0)"><g opacity="1" transform="matrix(0.9399999976158142,0,0,0.9399999976158142,0,245)"><path fill="rgb(6,22,206)" fill-opacity="1" d=" M0,356 C2.2076001167297363,356 4,357.7923889160156 4,360 C4,362.2076110839844 2.2076001167297363,364 0,364 C-2.2076001167297363,364 -4,362.2076110839844 -4,360 C-4,357.7923889160156 -2.2076001167297363,356 0,356z"></path></g></g><g opacity="1" transform="matrix(0.913545548915863,-0.40673649311065674,0.40673649311065674,0.913545548915863,0,0)"><g opacity="1" transform="matrix(0.9399999976158142,0,0,0.9399999976158142,0,245)"><path fill="rgb(6,22,206)" fill-opacity="1" d=" M0,356 C2.2076001167297363,356 4,357.7923889160156 4,360 C4,362.2076110839844 2.2076001167297363,364 0,364 C-2.2076001167297363,364 -4,362.2076110839844 -4,360 C-4,357.7923889160156 -2.2076001167297363,356 0,356z"></path></g></g><g opacity="1" transform="matrix(0.8660255074501038,-0.49999985098838806,0.49999985098838806,0.8660255074501038,0,0)"><g opacity="1" transform="matrix(0.9399999976158142,0,0,0.9399999976158142,0,245)"><path fill="rgb(6,22,206)" fill-opacity="1" d=" M0,356 C2.2076001167297363,356 4,357.7923889160156 4,360 C4,362.2076110839844 2.2076001167297363,364 0,364 C-2.2076001167297363,364 -4,362.2076110839844 -4,360 C-4,357.7923889160156 -2.2076001167297363,356 0,356z"></path></g></g><g opacity="1" transform="matrix(0.8090171217918396,-0.5877851247787476,0.5877851247787476,0.8090171217918396,0,0)"><g opacity="1" transform="matrix(0.9399999976158142,0,0,0.9399999976158142,0,245)"><path fill="rgb(6,22,206)" fill-opacity="1" d=" M0,356 C2.2076001167297363,356 4,357.7923889160156 4,360 C4,362.2076110839844 2.2076001167297363,364 0,364 C-2.2076001167297363,364 -4,362.2076110839844 -4,360 C-4,357.7923889160156 -2.2076001167297363,356 0,356z"></path></g></g><g opacity="1" transform="matrix(0.7431449890136719,-0.6691305041313171,0.6691305041313171,0.7431449890136719,0,0)"><g opacity="1" transform="matrix(0.9399999976158142,0,0,0.9399999976158142,0,245)"><path fill="rgb(6,22,206)" fill-opacity="1" d=" M0,356 C2.2076001167297363,356 4,357.7923889160156 4,360 C4,362.2076110839844 2.2076001167297363,364 0,364 C-2.2076001167297363,364 -4,362.2076110839844 -4,360 C-4,357.7923889160156 -2.2076001167297363,356 0,356z"></path></g></g><g opacity="1" transform="matrix(0.669130802154541,-0.7431447505950928,0.7431447505950928,0.669130802154541,0,0)"><g opacity="1" transform="matrix(0.9399999976158142,0,0,0.9399999976158142,0,245)"><path fill="rgb(6,22,206)" fill-opacity="1" d=" M0,356 C2.2076001167297363,356 4,357.7923889160156 4,360 C4,362.2076110839844 2.2076001167297363,364 0,364 C-2.2076001167297363,364 -4,362.2076110839844 -4,360 C-4,357.7923889160156 -2.2076001167297363,356 0,356z"></path></g></g><g opacity="1" transform="matrix(0.5877854824066162,-0.8090169429779053,0.8090169429779053,0.5877854824066162,0,0)"><g opacity="1" transform="matrix(0.9399999976158142,0,0,0.9399999976158142,0,245)"><path fill="rgb(6,22,206)" fill-opacity="1" d=" M0,356 C2.2076001167297363,356 4,357.7923889160156 4,360 C4,362.2076110839844 2.2076001167297363,364 0,364 C-2.2076001167297363,364 -4,362.2076110839844 -4,360 C-4,357.7923889160156 -2.2076001167297363,356 0,356z"></path></g></g><g opacity="1" transform="matrix(0.5000002384185791,-0.8660253882408142,0.8660253882408142,0.5000002384185791,0,0)"><g opacity="1" transform="matrix(0.9399999976158142,0,0,0.9399999976158142,0,245)"><path fill="rgb(6,22,206)" fill-opacity="1" d=" M0,356 C2.2076001167297363,356 4,357.7923889160156 4,360 C4,362.2076110839844 2.2076001167297363,364 0,364 C-2.2076001167297363,364 -4,362.2076110839844 -4,360 C-4,357.7923889160156 -2.2076001167297363,356 0,356z"></path></g></g><g opacity="1" transform="matrix(0.4067368805408478,-0.9135454893112183,0.9135454893112183,0.4067368805408478,0,0)"><g opacity="1" transform="matrix(0.9399999976158142,0,0,0.9399999976158142,0,245)"><path fill="rgb(6,22,206)" fill-opacity="1" d=" M0,356 C2.2076001167297363,356 4,357.7923889160156 4,360 C4,362.2076110839844 2.2076001167297363,364 0,364 C-2.2076001167297363,364 -4,362.2076110839844 -4,360 C-4,357.7923889160156 -2.2076001167297363,356 0,356z"></path></g></g><g opacity="1" transform="matrix(0.30901721119880676,-0.9510565996170044,0.9510565996170044,0.30901721119880676,0,0)"><g opacity="1" transform="matrix(0.9399999976158142,0,0,0.9399999976158142,0,245)"><path fill="rgb(6,22,206)" fill-opacity="1" d=" M0,356 C2.2076001167297363,356 4,357.7923889160156 4,360 C4,362.2076110839844 2.2076001167297363,364 0,364 C-2.2076001167297363,364 -4,362.2076110839844 -4,360 C-4,357.7923889160156 -2.2076001167297363,356 0,356z"></path></g></g><g opacity="1" transform="matrix(0.2079118937253952,-0.9781476855278015,0.9781476855278015,0.2079118937253952,0,0)"><g opacity="1" transform="matrix(0.9399999976158142,0,0,0.9399999976158142,0,245)"><path fill="rgb(6,22,206)" fill-opacity="1" d=" M0,356 C2.2076001167297363,356 4,357.7923889160156 4,360 C4,362.2076110839844 2.2076001167297363,364 0,364 C-2.2076001167297363,364 -4,362.2076110839844 -4,360 C-4,357.7923889160156 -2.2076001167297363,356 0,356z"></path></g></g><g opacity="1" transform="matrix(0.10452865809202194,-0.994521975517273,0.994521975517273,0.10452865809202194,0,0)"><g opacity="1" transform="matrix(0.9399999976158142,0,0,0.9399999976158142,0,245)"><path fill="rgb(6,22,206)" fill-opacity="1" d=" M0,356 C2.2076001167297363,356 4,357.7923889160156 4,360 C4,362.2076110839844 2.2076001167297363,364 0,364 C-2.2076001167297363,364 -4,362.2076110839844 -4,360 C-4,357.7923889160156 -2.2076001167297363,356 0,356z"></path></g></g><g opacity="1" transform="matrix(0,-1.0000001192092896,1.0000001192092896,0,0,0)"><g opacity="1" transform="matrix(0.9399999976158142,0,0,0.9399999976158142,0,245)"><path fill="rgb(6,22,206)" fill-opacity="1" d=" M0,356 C2.2076001167297363,356 4,357.7923889160156 4,360 C4,362.2076110839844 2.2076001167297363,364 0,364 C-2.2076001167297363,364 -4,362.2076110839844 -4,360 C-4,357.7923889160156 -2.2076001167297363,356 0,356z"></path></g></g><g opacity="1" transform="matrix(-0.10452829301357269,-0.9945220351219177,0.9945220351219177,-0.10452829301357269,0,0)"><g opacity="1" transform="matrix(0.9399999976158142,0,0,0.9399999976158142,0,245)"><path fill="rgb(6,22,206)" fill-opacity="1" d=" M0,356 C2.2076001167297363,356 4,357.7923889160156 4,360 C4,362.2076110839844 2.2076001167297363,364 0,364 C-2.2076001167297363,364 -4,362.2076110839844 -4,360 C-4,357.7923889160156 -2.2076001167297363,356 0,356z"></path></g></g><g opacity="1" transform="matrix(-0.20791153609752655,-0.9781477451324463,0.9781477451324463,-0.20791153609752655,0,0)"><g opacity="1" transform="matrix(0.9399999976158142,0,0,0.9399999976158142,0,245)"><path fill="rgb(6,22,206)" fill-opacity="1" d=" M0,356 C2.2076001167297363,356 4,357.7923889160156 4,360 C4,362.2076110839844 2.2076001167297363,364 0,364 C-2.2076001167297363,364 -4,362.2076110839844 -4,360 C-4,357.7923889160156 -2.2076001167297363,356 0,356z"></path></g></g><g opacity="1" transform="matrix(-0.3090168535709381,-0.9510566592216492,0.9510566592216492,-0.3090168535709381,0,0)"><g opacity="1" transform="matrix(0.9399999976158142,0,0,0.9399999976158142,0,245)"><path fill="rgb(6,22,206)" fill-opacity="1" d=" M0,356 C2.2076001167297363,356 4,357.7923889160156 4,360 C4,362.2076110839844 2.2076001167297363,364 0,364 C-2.2076001167297363,364 -4,362.2076110839844 -4,360 C-4,357.7923889160156 -2.2076001167297363,356 0,356z"></path></g></g><g opacity="1" transform="matrix(-0.4067365229129791,-0.9135456085205078,0.9135456085205078,-0.4067365229129791,0,0)"><g opacity="1" transform="matrix(0.9399999976158142,0,0,0.9399999976158142,0,245)"><path fill="rgb(6,22,206)" fill-opacity="1" d=" M0,356 C2.2076001167297363,356 4,357.7923889160156 4,360 C4,362.2076110839844 2.2076001167297363,364 0,364 C-2.2076001167297363,364 -4,362.2076110839844 -4,360 C-4,357.7923889160156 -2.2076001167297363,356 0,356z"></path></g></g><g opacity="1" transform="matrix(-0.49999991059303284,-0.8660255670547485,0.8660255670547485,-0.49999991059303284,0,0)"><g opacity="1" transform="matrix(0.9399999976158142,0,0,0.9399999976158142,0,245)"><path fill="rgb(6,22,206)" fill-opacity="1" d=" M0,356 C2.2076001167297363,356 4,357.7923889160156 4,360 C4,362.2076110839844 2.2076001167297363,364 0,364 C-2.2076001167297363,364 -4,362.2076110839844 -4,360 C-4,357.7923889160156 -2.2076001167297363,356 0,356z"></path></g></g><g opacity="1" transform="matrix(-0.5877851843833923,-0.8090171813964844,0.8090171813964844,-0.5877851843833923,0,0)"><g opacity="1" transform="matrix(0.9399999976158142,0,0,0.9399999976158142,0,245)"><path fill="rgb(6,22,206)" fill-opacity="1" d=" M0,356 C2.2076001167297363,356 4,357.7923889160156 4,360 C4,362.2076110839844 2.2076001167297363,364 0,364 C-2.2076001167297363,364 -4,362.2076110839844 -4,360 C-4,357.7923889160156 -2.2076001167297363,356 0,356z"></path></g></g><g opacity="1" transform="matrix(-0.6691305637359619,-0.7431449890136719,0.7431449890136719,-0.6691305637359619,0,0)"><g opacity="1" transform="matrix(0.9399999976158142,0,0,0.9399999976158142,0,245)"><path fill="rgb(6,22,206)" fill-opacity="1" d=" M0,356 C2.2076001167297363,356 4,357.7923889160156 4,360 C4,362.2076110839844 2.2076001167297363,364 0,364 C-2.2076001167297363,364 -4,362.2076110839844 -4,360 C-4,357.7923889160156 -2.2076001167297363,356 0,356z"></path></g></g><g opacity="1" transform="matrix(-0.7431448101997375,-0.669130802154541,0.669130802154541,-0.7431448101997375,0,0)"><g opacity="1" transform="matrix(0.9399999976158142,0,0,0.9399999976158142,0,245)"><path fill="rgb(6,22,206)" fill-opacity="1" d=" M0,356 C2.2076001167297363,356 4,357.7923889160156 4,360 C4,362.2076110839844 2.2076001167297363,364 0,364 C-2.2076001167297363,364 -4,362.2076110839844 -4,360 C-4,357.7923889160156 -2.2076001167297363,356 0,356z"></path></g></g><g opacity="1" transform="matrix(-0.80901700258255,-0.5877854228019714,0.5877854228019714,-0.80901700258255,0,0)"><g opacity="1" transform="matrix(0.9399999976158142,0,0,0.9399999976158142,0,245)"><path fill="rgb(6,22,206)" fill-opacity="1" d=" M0,356 C2.2076001167297363,356 4,357.7923889160156 4,360 C4,362.2076110839844 2.2076001167297363,364 0,364 C-2.2076001167297363,364 -4,362.2076110839844 -4,360 C-4,357.7923889160156 -2.2076001167297363,356 0,356z"></path></g></g><g opacity="1" transform="matrix(-0.866025447845459,-0.5000001788139343,0.5000001788139343,-0.866025447845459,0,0)"><g opacity="1" transform="matrix(0.9399999976158142,0,0,0.9399999976158142,0,245)"><path fill="rgb(6,22,206)" fill-opacity="1" d=" M0,356 C2.2076001167297363,356 4,357.7923889160156 4,360 C4,362.2076110839844 2.2076001167297363,364 0,364 C-2.2076001167297363,364 -4,362.2076110839844 -4,360 C-4,357.7923889160156 -2.2076001167297363,356 0,356z"></path></g></g><g opacity="1" transform="matrix(-0.913545548915863,-0.406736820936203,0.406736820936203,-0.913545548915863,0,0)"><g opacity="1" transform="matrix(0.9399999976158142,0,0,0.9399999976158142,0,245)"><path fill="rgb(6,22,206)" fill-opacity="1" d=" M0,356 C2.2076001167297363,356 4,357.7923889160156 4,360 C4,362.2076110839844 2.2076001167297363,364 0,364 C-2.2076001167297363,364 -4,362.2076110839844 -4,360 C-4,357.7923889160156 -2.2076001167297363,356 0,356z"></path></g></g><g opacity="1" transform="matrix(-0.9510565996170044,-0.309017151594162,0.309017151594162,-0.9510565996170044,0,0)"><g opacity="1" transform="matrix(0.9399999976158142,0,0,0.9399999976158142,0,245)"><path fill="rgb(6,22,206)" fill-opacity="1" d=" M0,356 C2.2076001167297363,356 4,357.7923889160156 4,360 C4,362.2076110839844 2.2076001167297363,364 0,364 C-2.2076001167297363,364 -4,362.2076110839844 -4,360 C-4,357.7923889160156 -2.2076001167297363,356 0,356z"></path></g></g><g opacity="1" transform="matrix(-0.9781476855278015,-0.20791184902191162,0.20791184902191162,-0.9781476855278015,0,0)"><g opacity="1" transform="matrix(0.9399999976158142,0,0,0.9399999976158142,0,245)"><path fill="rgb(6,22,206)" fill-opacity="1" d=" M0,356 C2.2076001167297363,356 4,357.7923889160156 4,360 C4,362.2076110839844 2.2076001167297363,364 0,364 C-2.2076001167297363,364 -4,362.2076110839844 -4,360 C-4,357.7923889160156 -2.2076001167297363,356 0,356z"></path></g></g><g opacity="1" transform="matrix(-0.994521975517273,-0.10452861338853836,0.10452861338853836,-0.994521975517273,0,0)"><g opacity="1" transform="matrix(0.9399999976158142,0,0,0.9399999976158142,0,245)"><path fill="rgb(6,22,206)" fill-opacity="1" d=" M0,356 C2.2076001167297363,356 4,357.7923889160156 4,360 C4,362.2076110839844 2.2076001167297363,364 0,364 C-2.2076001167297363,364 -4,362.2076110839844 -4,360 C-4,357.7923889160156 -2.2076001167297363,356 0,356z"></path></g></g><g opacity="1" transform="matrix(-1.0000001192092896,0,0,-1.0000001192092896,0,0)"><g opacity="1" transform="matrix(0.9399999976158142,0,0,0.9399999976158142,0,245)"><path fill="rgb(6,22,206)" fill-opacity="1" d=" M0,356 C2.2076001167297363,356 4,357.7923889160156 4,360 C4,362.2076110839844 2.2076001167297363,364 0,364 C-2.2076001167297363,364 -4,362.2076110839844 -4,360 C-4,357.7923889160156 -2.2076001167297363,356 0,356z"></path></g></g><g opacity="1" transform="matrix(-0.994521975517273,0.10452833026647568,-0.10452833026647568,-0.994521975517273,0,0)"><g opacity="1" transform="matrix(0.9399999976158142,0,0,0.9399999976158142,0,245)"><path fill="rgb(6,22,206)" fill-opacity="1" d=" M0,356 C2.2076001167297363,356 4,357.7923889160156 4,360 C4,362.2076110839844 2.2076001167297363,364 0,364 C-2.2076001167297363,364 -4,362.2076110839844 -4,360 C-4,357.7923889160156 -2.2076001167297363,356 0,356z"></path></g></g><g opacity="1" transform="matrix(-0.9781476855278015,0.20791156589984894,-0.20791156589984894,-0.9781476855278015,0,0)"><g opacity="1" transform="matrix(0.9399999976158142,0,0,0.9399999976158142,0,245)"><path fill="rgb(6,22,206)" fill-opacity="1" d=" M0,356 C2.2076001167297363,356 4,357.7923889160156 4,360 C4,362.2076110839844 2.2076001167297363,364 0,364 C-2.2076001167297363,364 -4,362.2076110839844 -4,360 C-4,357.7923889160156 -2.2076001167297363,356 0,356z"></path></g></g><g opacity="1" transform="matrix(-0.9510565996170044,0.3090168833732605,-0.3090168833732605,-0.9510565996170044,0,0)"><g opacity="1" transform="matrix(0.9399999976158142,0,0,0.9399999976158142,0,245)"><path fill="rgb(6,22,206)" fill-opacity="1" d=" M0,356 C2.2076001167297363,356 4,357.7923889160156 4,360 C4,362.2076110839844 2.2076001167297363,364 0,364 C-2.2076001167297363,364 -4,362.2076110839844 -4,360 C-4,357.7923889160156 -2.2076001167297363,356 0,356z"></path></g></g><g opacity="1" transform="matrix(-0.913545548915863,0.4067365527153015,-0.4067365527153015,-0.913545548915863,0,0)"><g opacity="1" transform="matrix(0.9399999976158142,0,0,0.9399999976158142,0,245)"><path fill="rgb(6,22,206)" fill-opacity="1" d=" M0,356 C2.2076001167297363,356 4,357.7923889160156 4,360 C4,362.2076110839844 2.2076001167297363,364 0,364 C-2.2076001167297363,364 -4,362.2076110839844 -4,360 C-4,357.7923889160156 -2.2076001167297363,356 0,356z"></path></g></g><g opacity="1" transform="matrix(-0.8660255074501038,0.49999991059303284,-0.49999991059303284,-0.8660255074501038,0,0)"><g opacity="1" transform="matrix(0.9399999976158142,0,0,0.9399999976158142,0,245)"><path fill="rgb(6,22,206)" fill-opacity="1" d=" M0,356 C2.2076001167297363,356 4,357.7923889160156 4,360 C4,362.2076110839844 2.2076001167297363,364 0,364 C-2.2076001167297363,364 -4,362.2076110839844 -4,360 C-4,357.7923889160156 -2.2076001167297363,356 0,356z"></path></g></g><g opacity="1" transform="matrix(-0.8090171217918396,0.5877851843833923,-0.5877851843833923,-0.8090171217918396,0,0)"><g opacity="1" transform="matrix(0.9399999976158142,0,0,0.9399999976158142,0,245)"><path fill="rgb(6,22,206)" fill-opacity="1" d=" M0,356 C2.2076001167297363,356 4,357.7923889160156 4,360 C4,362.2076110839844 2.2076001167297363,364 0,364 C-2.2076001167297363,364 -4,362.2076110839844 -4,360 C-4,357.7923889160156 -2.2076001167297363,356 0,356z"></path></g></g><g opacity="1" transform="matrix(-0.7431449294090271,0.6691305637359619,-0.6691305637359619,-0.7431449294090271,0,0)"><g opacity="1" transform="matrix(0.9399999976158142,0,0,0.9399999976158142,0,245)"><path fill="rgb(6,22,206)" fill-opacity="1" d=" M0,356 C2.2076001167297363,356 4,357.7923889160156 4,360 C4,362.2076110839844 2.2076001167297363,364 0,364 C-2.2076001167297363,364 -4,362.2076110839844 -4,360 C-4,357.7923889160156 -2.2076001167297363,356 0,356z"></path></g></g><g opacity="1" transform="matrix(-0.6691306829452515,0.7431448101997375,-0.7431448101997375,-0.6691306829452515,0,0)"><g opacity="1" transform="matrix(0.9399999976158142,0,0,0.9399999976158142,0,245)"><path fill="rgb(6,22,206)" fill-opacity="1" d=" M0,356 C2.2076001167297363,356 4,357.7923889160156 4,360 C4,362.2076110839844 2.2076001167297363,364 0,364 C-2.2076001167297363,364 -4,362.2076110839844 -4,360 C-4,357.7923889160156 -2.2076001167297363,356 0,356z"></path></g></g><g opacity="1" transform="matrix(-0.5877853035926819,0.80901700258255,-0.80901700258255,-0.5877853035926819,0,0)"><g opacity="1" transform="matrix(0.9399999976158142,0,0,0.9399999976158142,0,245)"><path fill="rgb(6,22,206)" fill-opacity="1" d=" M0,356 C2.2076001167297363,356 4,357.7923889160156 4,360 C4,362.2076110839844 2.2076001167297363,364 0,364 C-2.2076001167297363,364 -4,362.2076110839844 -4,360 C-4,357.7923889160156 -2.2076001167297363,356 0,356z"></path></g></g><g opacity="1" transform="matrix(-0.5000000596046448,0.866025447845459,-0.866025447845459,-0.5000000596046448,0,0)"><g opacity="1" transform="matrix(0.9399999976158142,0,0,0.9399999976158142,0,245)"><path fill="rgb(6,22,206)" fill-opacity="1" d=" M0,356 C2.2076001167297363,356 4,357.7923889160156 4,360 C4,362.2076110839844 2.2076001167297363,364 0,364 C-2.2076001167297363,364 -4,362.2076110839844 -4,360 C-4,357.7923889160156 -2.2076001167297363,356 0,356z"></path></g></g><g opacity="1" transform="matrix(-0.40673667192459106,0.9135454893112183,-0.9135454893112183,-0.40673667192459106,0,0)"><g opacity="1" transform="matrix(0.9399999976158142,0,0,0.9399999976158142,0,245)"><path fill="rgb(6,22,206)" fill-opacity="1" d=" M0,356 C2.2076001167297363,356 4,357.7923889160156 4,360 C4,362.2076110839844 2.2076001167297363,364 0,364 C-2.2076001167297363,364 -4,362.2076110839844 -4,360 C-4,357.7923889160156 -2.2076001167297363,356 0,356z"></path></g></g><g opacity="1" transform="matrix(-0.30901703238487244,0.9510565400123596,-0.9510565400123596,-0.30901703238487244,0,0)"><g opacity="1" transform="matrix(0.9399999976158142,0,0,0.9399999976158142,0,245)"><path fill="rgb(6,22,206)" fill-opacity="1" d=" M0,356 C2.2076001167297363,356 4,357.7923889160156 4,360 C4,362.2076110839844 2.2076001167297363,364 0,364 C-2.2076001167297363,364 -4,362.2076110839844 -4,360 C-4,357.7923889160156 -2.2076001167297363,356 0,356z"></path></g></g><g opacity="1" transform="matrix(-0.20791171491146088,0.9781476259231567,-0.9781476259231567,-0.20791171491146088,0,0)"><g opacity="1" transform="matrix(0.9399999976158142,0,0,0.9399999976158142,0,245)"><path fill="rgb(6,22,206)" fill-opacity="1" d=" M0,356 C2.2076001167297363,356 4,357.7923889160156 4,360 C4,362.2076110839844 2.2076001167297363,364 0,364 C-2.2076001167297363,364 -4,362.2076110839844 -4,360 C-4,357.7923889160156 -2.2076001167297363,356 0,356z"></path></g></g><g opacity="1" transform="matrix(-0.10452848672866821,0.9945219159126282,-0.9945219159126282,-0.10452848672866821,0,0)"><g opacity="1" transform="matrix(0.9399999976158142,0,0,0.9399999976158142,0,245)"><path fill="rgb(6,22,206)" fill-opacity="1" d=" M0,356 C2.2076001167297363,356 4,357.7923889160156 4,360 C4,362.2076110839844 2.2076001167297363,364 0,364 C-2.2076001167297363,364 -4,362.2076110839844 -4,360 C-4,357.7923889160156 -2.2076001167297363,356 0,356z"></path></g></g><g opacity="1" transform="matrix(0,1,-1,0,0,0)"><g opacity="1" transform="matrix(0.9399999976158142,0,0,0.9399999976158142,0,245)"><path fill="rgb(6,22,206)" fill-opacity="1" d=" M0,356 C2.2076001167297363,356 4,357.7923889160156 4,360 C4,362.2076110839844 2.2076001167297363,364 0,364 C-2.2076001167297363,364 -4,362.2076110839844 -4,360 C-4,357.7923889160156 -2.2076001167297363,356 0,356z"></path></g></g><g opacity="1" transform="matrix(0.10452844202518463,0.9945219159126282,-0.9945219159126282,0.10452844202518463,0,0)"><g opacity="1" transform="matrix(0.9399999976158142,0,0,0.9399999976158142,0,245)"><path fill="rgb(6,22,206)" fill-opacity="1" d=" M0,356 C2.2076001167297363,356 4,357.7923889160156 4,360 C4,362.2076110839844 2.2076001167297363,364 0,364 C-2.2076001167297363,364 -4,362.2076110839844 -4,360 C-4,357.7923889160156 -2.2076001167297363,356 0,356z"></path></g></g><g opacity="1" transform="matrix(0.2079116702079773,0.9781476259231567,-0.9781476259231567,0.2079116702079773,0,0)"><g opacity="1" transform="matrix(0.9399999976158142,0,0,0.9399999976158142,0,245)"><path fill="rgb(6,22,206)" fill-opacity="1" d=" M0,356 C2.2076001167297363,356 4,357.7923889160156 4,360 C4,362.2076110839844 2.2076001167297363,364 0,364 C-2.2076001167297363,364 -4,362.2076110839844 -4,360 C-4,357.7923889160156 -2.2076001167297363,356 0,356z"></path></g></g><g opacity="1" transform="matrix(0.30901697278022766,0.9510565400123596,-0.9510565400123596,0.30901697278022766,0,0)"><g opacity="1" transform="matrix(0.9399999976158142,0,0,0.9399999976158142,0,245)"><path fill="rgb(6,22,206)" fill-opacity="1" d=" M0,356 C2.2076001167297363,356 4,357.7923889160156 4,360 C4,362.2076110839844 2.2076001167297363,364 0,364 C-2.2076001167297363,364 -4,362.2076110839844 -4,360 C-4,357.7923889160156 -2.2076001167297363,356 0,356z"></path></g></g><g opacity="1" transform="matrix(0.4067366123199463,0.9135454893112183,-0.9135454893112183,0.4067366123199463,0,0)"><g opacity="1" transform="matrix(0.9399999976158142,0,0,0.9399999976158142,0,245)"><path fill="rgb(6,22,206)" fill-opacity="1" d=" M0,356 C2.2076001167297363,356 4,357.7923889160156 4,360 C4,362.2076110839844 2.2076001167297363,364 0,364 C-2.2076001167297363,364 -4,362.2076110839844 -4,360 C-4,357.7923889160156 -2.2076001167297363,356 0,356z"></path></g></g><g opacity="1" transform="matrix(0.4999999701976776,0.866025447845459,-0.866025447845459,0.4999999701976776,0,0)"><g opacity="1" transform="matrix(0.9399999976158142,0,0,0.9399999976158142,0,245)"><path fill="rgb(6,22,206)" fill-opacity="1" d=" M0,356 C2.2076001167297363,356 4,357.7923889160156 4,360 C4,362.2076110839844 2.2076001167297363,364 0,364 C-2.2076001167297363,364 -4,362.2076110839844 -4,360 C-4,357.7923889160156 -2.2076001167297363,356 0,356z"></path></g></g><g opacity="1" transform="matrix(0.5877852439880371,0.8090170621871948,-0.8090170621871948,0.5877852439880371,0,0)"><g opacity="1" transform="matrix(0.9399999976158142,0,0,0.9399999976158142,0,245)"><path fill="rgb(6,22,206)" fill-opacity="1" d=" M0,356 C2.2076001167297363,356 4,357.7923889160156 4,360 C4,362.2076110839844 2.2076001167297363,364 0,364 C-2.2076001167297363,364 -4,362.2076110839844 -4,360 C-4,357.7923889160156 -2.2076001167297363,356 0,356z"></path></g></g><g opacity="1" transform="matrix(0.6691306233406067,0.7431448698043823,-0.7431448698043823,0.6691306233406067,0,0)"><g opacity="1" transform="matrix(0.9399999976158142,0,0,0.9399999976158142,0,245)"><path fill="rgb(6,22,206)" fill-opacity="1" d=" M0,356 C2.2076001167297363,356 4,357.7923889160156 4,360 C4,362.2076110839844 2.2076001167297363,364 0,364 C-2.2076001167297363,364 -4,362.2076110839844 -4,360 C-4,357.7923889160156 -2.2076001167297363,356 0,356z"></path></g></g><g opacity="1" transform="matrix(0.7431448698043823,0.6691306233406067,-0.6691306233406067,0.7431448698043823,0,0)"><g opacity="1" transform="matrix(0.9399999976158142,0,0,0.9399999976158142,0,245)"><path fill="rgb(6,22,206)" fill-opacity="1" d=" M0,356 C2.2076001167297363,356 4,357.7923889160156 4,360 C4,362.2076110839844 2.2076001167297363,364 0,364 C-2.2076001167297363,364 -4,362.2076110839844 -4,360 C-4,357.7923889160156 -2.2076001167297363,356 0,356z"></path></g></g><g opacity="1" transform="matrix(0.8090170621871948,0.5877852439880371,-0.5877852439880371,0.8090170621871948,0,0)"><g opacity="1" transform="matrix(0.9399999976158142,0,0,0.9399999976158142,0,245)"><path fill="rgb(6,22,206)" fill-opacity="1" d=" M0,356 C2.2076001167297363,356 4,357.7923889160156 4,360 C4,362.2076110839844 2.2076001167297363,364 0,364 C-2.2076001167297363,364 -4,362.2076110839844 -4,360 C-4,357.7923889160156 -2.2076001167297363,356 0,356z"></path></g></g><g opacity="1" transform="matrix(0.866025447845459,0.5,-0.5,0.866025447845459,0,0)"><g opacity="1" transform="matrix(0.9399999976158142,0,0,0.9399999976158142,0,245)"><path fill="rgb(6,22,206)" fill-opacity="1" d=" M0,356 C2.2076001167297363,356 4,357.7923889160156 4,360 C4,362.2076110839844 2.2076001167297363,364 0,364 C-2.2076001167297363,364 -4,362.2076110839844 -4,360 C-4,357.7923889160156 -2.2076001167297363,356 0,356z"></path></g></g><g opacity="1" transform="matrix(0.9135454893112183,0.4067366421222687,-0.4067366421222687,0.9135454893112183,0,0)"><g opacity="1" transform="matrix(0.9399999976158142,0,0,0.9399999976158142,0,245)"><path fill="rgb(6,22,206)" fill-opacity="1" d=" M0,356 C2.2076001167297363,356 4,357.7923889160156 4,360 C4,362.2076110839844 2.2076001167297363,364 0,364 C-2.2076001167297363,364 -4,362.2076110839844 -4,360 C-4,357.7923889160156 -2.2076001167297363,356 0,356z"></path></g></g><g opacity="1" transform="matrix(0.9510565400123596,0.30901700258255005,-0.30901700258255005,0.9510565400123596,0,0)"><g opacity="1" transform="matrix(0.9399999976158142,0,0,0.9399999976158142,0,245)"><path fill="rgb(6,22,206)" fill-opacity="1" d=" M0,356 C2.2076001167297363,356 4,357.7923889160156 4,360 C4,362.2076110839844 2.2076001167297363,364 0,364 C-2.2076001167297363,364 -4,362.2076110839844 -4,360 C-4,357.7923889160156 -2.2076001167297363,356 0,356z"></path></g></g><g opacity="1" transform="matrix(0.9781476259231567,0.20791170001029968,-0.20791170001029968,0.9781476259231567,0,0)"><g opacity="1" transform="matrix(0.9399999976158142,0,0,0.9399999976158142,0,245)"><path fill="rgb(6,22,206)" fill-opacity="1" d=" M0,356 C2.2076001167297363,356 4,357.7923889160156 4,360 C4,362.2076110839844 2.2076001167297363,364 0,364 C-2.2076001167297363,364 -4,362.2076110839844 -4,360 C-4,357.7923889160156 -2.2076001167297363,356 0,356z"></path></g></g><g opacity="1" transform="matrix(0.9945219159126282,0.10452846437692642,-0.10452846437692642,0.9945219159126282,0,0)"><g opacity="1" transform="matrix(0.9399999976158142,0,0,0.9399999976158142,0,245)"><path fill="rgb(6,22,206)" fill-opacity="1" d=" M0,356 C2.2076001167297363,356 4,357.7923889160156 4,360 C4,362.2076110839844 2.2076001167297363,364 0,364 C-2.2076001167297363,364 -4,362.2076110839844 -4,360 C-4,357.7923889160156 -2.2076001167297363,356 0,356z"></path></g></g><g opacity="1" transform="matrix(1,0,0,1,0,0)"><g opacity="1" transform="matrix(0.9399999976158142,0,0,0.9399999976158142,0,245)"><path fill="rgb(6,22,206)" fill-opacity="1" d=" M0,356 C2.2076001167297363,356 4,357.7923889160156 4,360 C4,362.2076110839844 2.2076001167297363,364 0,364 C-2.2076001167297363,364 -4,362.2076110839844 -4,360 C-4,357.7923889160156 -2.2076001167297363,356 0,356z"></path></g></g></g></g><g style="display: none;"><g></g></g></g></g></g></svg>